<svg width="179" height="252" viewBox="0 0 179 252" fill="none" xmlns="http://www.w3.org/2000/svg">
<g opacity="0.2" clip-path="url(#clip0_573_1250)">
<path d="M101.121 22.1643L82.5512 35.267L99.4836 42.6364L117.994 30.6298L101.121 22.1643Z" fill="gray" fill-opacity="0.5"/>
<path d="M17.5164 99.0968C17.4864 99.1731 20.7233 106.161 24.7044 114.635C30.9651 127.961 32.0539 130.104 32.7828 130.41C33.7774 130.829 50.6353 134.434 51.0029 134.307C51.1418 134.257 48.1724 127.244 44.4142 118.724C40.656 110.203 37.4329 103.052 37.2473 102.834C36.9277 102.459 17.634 98.804 17.5164 99.0968Z" fill="gray" fill-opacity="0.5"/>
<path d="M40.3196 103.073L40.733 104.29C40.9598 104.957 44.1336 112.168 47.7887 120.319L54.4344 135.141L65.0757 137.395C70.9287 138.636 75.7286 139.621 75.7423 139.586C75.7561 139.552 72.7924 132.234 69.1509 123.32L62.5291 107.107L51.4238 105.09L40.3184 103.074L40.3196 103.073Z" fill="gray" fill-opacity="0.5"/>
<path d="M155.866 65.2967C153.766 66.4621 125.045 87.0775 124.772 87.6361C124.69 87.8054 126.735 93.3783 129.326 100.025C131.918 106.672 134.775 114.115 135.679 116.564C136.582 119.014 137.462 120.951 137.625 120.875C137.792 120.804 144.528 115.679 152.597 109.497C160.665 103.315 167.306 98.153 167.358 98.025C167.519 97.6224 156.338 65.3849 155.988 65.2443C155.968 65.2359 155.929 65.2474 155.866 65.296L155.866 65.2967Z" fill="gray" fill-opacity="0.5"/>
<path d="M65.2695 107.63L72.0203 123.775C77.0872 135.9 78.9262 139.996 79.4025 140.23C80.1729 140.607 101.992 145.299 102.382 145.171C102.534 145.117 100.144 139.194 97.0729 132C94.0019 124.805 90.9304 117.318 90.2438 115.362L89.0001 111.803L87.9027 111.851C87.3027 111.875 82.5075 111.029 77.2501 109.97C71.9927 108.91 67.1541 107.947 66.4881 107.833L65.2703 107.63L65.2695 107.63Z" fill="gray" fill-opacity="0.5"/>
<path d="M122.035 89.6731C120.374 90.3658 92.4461 110.93 92.2496 111.598C92.085 112.158 93.65 116.109 98.9958 128.627C102.825 137.593 106.08 144.881 106.226 144.817C106.373 144.755 112.891 139.81 120.719 133.828C128.548 127.847 135.025 122.759 135.107 122.529C135.189 122.3 132.663 115.548 129.501 107.525C126.339 99.5018 123.511 92.1411 123.213 91.1688C122.748 89.6508 122.582 89.4431 122.035 89.673L122.035 89.6731Z" fill="gray" fill-opacity="0.5"/>
<path d="M33.988 133.75C33.8439 134.11 46.1317 160.518 47.1115 161.955C47.6968 162.814 49.478 163.52 57.0454 165.879L66.2679 168.752L64.2441 163.765C63.1295 161.023 60.0219 153.967 57.3358 148.081L52.4474 137.374L43.2728 135.413C38.2273 134.336 34.052 133.591 33.988 133.75Z" fill="gray" fill-opacity="0.5"/>
<path d="M55.8158 138.217C55.8013 138.304 58.8938 145.424 62.6997 154.029C68.0336 166.113 69.7509 169.734 70.2555 169.936C70.615 170.08 75.4353 171.612 80.9639 173.332L91.0168 176.455L87.9524 168.664C86.2673 164.38 83.1523 156.754 81.0331 151.723L77.1833 142.584L66.5103 140.317C60.6411 139.072 55.8299 138.129 55.8158 138.217Z" fill="gray" fill-opacity="0.5"/>
<path d="M195.21 80.305C194.794 80.4837 170.707 98.7712 170.604 98.993C170.549 99.1127 182.268 133.441 182.758 134.595C182.919 134.973 183.202 135.106 183.416 134.906C183.623 134.713 188.626 130.727 194.536 126.054C200.445 121.381 205.429 117.339 205.614 117.075C205.842 116.752 204.379 111.063 201.106 99.5909C198.439 90.2408 196.109 82.0419 195.938 81.3626C195.735 80.5533 195.489 80.1897 195.211 80.3056L195.21 80.305Z" fill="gray" fill-opacity="0.5"/>
<path d="M168.296 100.719L153.513 112.016C145.381 118.231 138.679 123.417 138.63 123.54C138.531 123.787 149.18 151.474 151.254 156.364L152.546 159.428L166.538 148.311C174.233 142.195 180.585 137.054 180.65 136.893C180.765 136.607 169.937 104.649 168.837 102.026L168.296 100.719Z" fill="gray" fill-opacity="0.5"/>
<path d="M80.2127 143.305C80.1229 143.343 83.356 151.099 87.4016 160.539L94.7577 177.702L106.722 181.39L118.686 185.078L116.946 180.39C115.993 177.812 112.586 169.503 109.376 161.925L103.546 148.148L91.9634 145.691C85.5909 144.342 80.303 143.267 80.2136 143.305L80.2127 143.305Z" fill="gray" fill-opacity="0.5"/>
<path d="M136.281 125.464C136.076 125.382 107.29 147.183 107.217 147.477C107.204 147.524 110.533 155.688 114.606 165.611C121.912 183.409 122.01 183.649 122.621 183.176C122.961 182.911 129.32 177.86 136.754 171.959L150.267 161.231L148.879 157.365C146.454 150.659 136.544 125.57 136.281 125.464Z" fill="gray" fill-opacity="0.5"/>
<path d="M49.2786 166.643C49.2637 166.647 49.2705 166.665 49.2738 166.673C49.3402 166.963 52.0491 172.845 55.2995 179.735L61.2114 192.254L62.5191 192.853L72.1284 197.218L80.4411 200.979L77.6831 194.214C76.1653 190.489 73.3124 183.941 71.3295 179.674L67.7267 171.916L58.4454 169.028C53.2072 167.401 49.4418 166.426 49.2745 166.645L49.2786 166.643Z" fill="gray" fill-opacity="0.5"/>
<path d="M71.4824 173.085L74.2262 179.816C75.7367 183.524 78.6514 190.217 80.7175 194.679L84.4724 202.794L95.233 207.667L106.004 212.535L104.237 207.78C103.265 205.163 100.254 197.779 97.5404 191.361L92.6074 179.686L82.0453 176.386L71.4831 173.085L71.4824 173.085Z" fill="gray" fill-opacity="0.5"/>
<path d="M181.627 139.791C181.349 139.766 153.664 161.74 153.548 162.079C153.504 162.206 155.99 168.714 159.067 176.542C162.144 184.37 165.066 191.974 165.561 193.441C166.056 194.908 166.55 196.069 166.663 196.021C166.775 195.974 172.649 190.409 179.716 183.661L192.562 171.402L192.272 170.198C191.705 167.926 181.863 139.814 181.627 139.791Z" fill="gray" fill-opacity="0.5"/>
<path d="M95.9837 180.822C95.7879 180.83 98.8383 188.369 102.768 197.572L109.917 214.31L122.575 220.055C129.538 223.217 135.334 225.77 135.454 225.733C135.576 225.7 133.101 219.35 129.957 211.629C126.813 203.908 123.345 195.495 122.249 192.934L120.245 188.28L108.288 184.548C101.712 182.497 96.1762 180.817 95.9805 180.823L95.9837 180.822Z" fill="gray" fill-opacity="0.5"/>
<path d="M151.317 163.938C151.149 163.871 142.804 170.424 123.668 185.661C123.154 186.071 123.623 187.281 130.944 204.423C135.266 214.543 138.885 222.623 139.026 222.485L152.033 210.079L164.781 197.928L163.874 195.765C163.368 194.58 160.384 186.956 157.242 178.819C154.1 170.682 151.436 163.983 151.32 163.937L151.317 163.938Z" fill="gray" fill-opacity="0.5"/>
<path d="M44.5722 79.1614L32.7704 86.6605C26.2798 90.7886 20.9185 94.2847 20.8603 94.4296C20.802 94.5745 21.0538 94.7359 21.4187 94.7829C21.7837 94.83 25.5961 95.5484 29.8841 96.3752C34.1721 97.2021 37.9214 97.7787 38.2205 97.6673C38.5196 97.556 43.884 93.9308 50.1374 89.6063C56.3908 85.2818 61.5856 81.5982 61.6717 81.4191C61.7579 81.24 57.9438 80.6499 53.2003 80.1188L44.5722 79.1614Z" fill="gray" fill-opacity="0.5"/>
<path d="M95.1084 84.8283L82.6575 94.1959C75.805 99.3497 70.2376 103.66 70.2922 103.764C70.44 104.045 89.7605 107.665 90.1752 107.489C90.3712 107.406 96.6811 102.913 104.191 97.506C111.701 92.0994 117.869 87.6056 117.903 87.5208C117.937 87.436 112.824 86.7991 106.54 86.101L95.1084 84.8283Z" fill="gray" fill-opacity="0.5"/>
<path d="M65.4791 82.0678C65.1112 82.336 59.7625 86.0425 53.5957 90.299C47.4288 94.5555 42.2403 98.1531 42.0726 98.297C41.9051 98.4418 47.3221 99.6004 54.098 100.868L66.4158 103.169L75.9832 95.9792L88.3527 86.6988C89.8846 85.5466 90.9593 84.5386 90.747 84.4533C90.5348 84.368 84.9121 83.6846 78.2514 82.9386C69.989 82.0131 65.9353 81.7343 65.4791 82.0678Z" fill="gray" fill-opacity="0.5"/>
<path d="M93.6186 56.1643L72.8719 76.2033L98.5917 75.804L118.932 52.7741L93.6193 56.1646L93.6186 56.1643Z" fill="gray" fill-opacity="0.5"/>
<path d="M123.748 32.7035L104.478 46.2716L125.783 53.4404L147.091 37.3178L123.748 32.7035Z" fill="gray" fill-opacity="0.5"/>
<path d="M73.0223 46.883L39.3521 62.3679L57.9189 70.3615L89.8952 53.3964L73.0223 46.883Z" fill="gray" fill-opacity="0.5"/>
<path d="M150.428 32.2293L132.056 51.4685L156.261 50.4262L177.893 29.0776L150.427 32.2289L150.428 32.2293Z" fill="gray" fill-opacity="0.5"/>
<path d="M128.034 60.1455L113.289 71.19C105.179 77.2654 98.5846 82.3319 98.633 82.446C98.6815 82.5602 103.821 83.212 110.053 83.9072L121.377 85.173L136.807 74.0991C145.288 68.0053 152.26 62.9219 152.304 62.8124C152.348 62.702 146.906 62.0566 140.21 61.3757L128.034 60.1455L128.034 60.1455Z" fill="gray" fill-opacity="0.5"/>
<path d="M178.865 32.1282L157.632 53.485L168.9 85.3322L187.998 64.4267L178.865 32.1282Z" fill="gray" fill-opacity="0.5"/>
</g>
<defs>
<clipPath id="clip0_573_1250">
<rect width="185.097" height="210.484" fill="gray" transform="translate(0 47.9062) rotate(-15)"/>
</clipPath>
</defs>
</svg>
