<svg width="64" height="65" viewBox="0 0 64 65" fill="none" xmlns="http://www.w3.org/2000/svg">
<g id="close-circle">
<path id="Vector" d="M32.3333 7.68848C27.3229 7.68848 22.4249 9.17425 18.2589 11.9579C14.0929 14.7416 10.8458 18.6981 8.9284 23.3272C7.01098 27.9562 6.50929 33.0499 7.48678 37.9641C8.46428 42.8783 10.877 47.3923 14.42 50.9352C17.9629 54.4781 22.4769 56.8909 27.3911 57.8684C32.3052 58.8459 37.3989 58.3442 42.028 56.4268C46.657 54.5093 50.6136 51.2623 53.3972 47.0963C56.1809 42.9302 57.6667 38.0323 57.6667 33.0218C57.6589 26.3054 54.9874 19.8663 50.2381 15.117C45.4889 10.3678 39.0498 7.69624 32.3333 7.68848ZM42.2187 39.1365C42.4734 39.3825 42.6765 39.6767 42.8163 40.0021C42.956 40.3274 43.0296 40.6773 43.0327 41.0314C43.0358 41.3855 42.9683 41.7366 42.8342 42.0644C42.7001 42.3921 42.5021 42.6898 42.2517 42.9402C42.0013 43.1906 41.7036 43.3886 41.3759 43.5227C41.0482 43.6567 40.697 43.7242 40.3429 43.7211C39.9889 43.7181 39.6389 43.6445 39.3136 43.5047C38.9883 43.365 38.694 43.1618 38.448 42.9071L32.3333 36.7925L26.2187 42.9071C25.7157 43.3929 25.0421 43.6617 24.3429 43.6556C23.6437 43.6495 22.9749 43.3691 22.4805 42.8747C21.9861 42.3802 21.7056 41.7114 21.6995 41.0122C21.6935 40.313 21.9623 39.6394 22.448 39.1365L28.5627 33.0218L22.448 26.9071C21.9623 26.4042 21.6935 25.7306 21.6995 25.0314C21.7056 24.3322 21.9861 23.6634 22.4805 23.169C22.9749 22.6745 23.6437 22.3941 24.3429 22.388C25.0421 22.3819 25.7157 22.6507 26.2187 23.1365L32.3333 29.2511L38.448 23.1365C38.9509 22.6507 39.6246 22.3819 40.3237 22.388C41.0229 22.3941 41.6918 22.6745 42.1862 23.169C42.6806 23.6634 42.9611 24.3322 42.9671 25.0314C42.9732 25.7306 42.7044 26.4042 42.2187 26.9071L36.104 33.0218L42.2187 39.1365Z" fill="#C22F62"/>
</g>
</svg>
