<svg width="280" height="280" viewBox="0 0 280 280" fill="none" xmlns="http://www.w3.org/2000/svg">
<g id="Cube" opacity="0.2" clip-path="url(#clip0_577_2091)">
<g id="Group">
<path id="Vector" d="M221.855 74.7037L201.223 65.1728L203.307 83.5213L222.96 93.5487L221.855 74.7037Z" fill="white" fill-opacity="0.5"/>
<path id="Vector_2" d="M113.427 40.7665C113.346 40.7787 108.913 47.0757 103.564 54.7606C95.1539 66.8457 93.8428 68.8598 93.9416 69.6445C94.076 70.7153 99.3833 87.1169 99.6773 87.3717C99.7899 87.467 104.378 81.3892 109.878 73.8742C115.378 66.3592 119.96 59.9924 120.055 59.7227C120.221 59.2582 113.739 40.722 113.427 40.7665Z" fill="white" fill-opacity="0.5"/>
<path id="Vector_3" d="M121.384 62.5009L120.536 63.4676C120.073 63.9972 115.414 70.3513 110.183 77.5922L100.669 90.7587L104.038 101.102C105.89 106.791 107.437 111.44 107.474 111.434C107.51 111.429 112.366 105.204 118.265 97.5932L128.995 83.7517L125.189 73.126L121.383 62.5002L121.384 62.5009Z" fill="white" fill-opacity="0.5"/>
<path id="Vector_4" d="M211.872 143.68C209.813 142.444 177.599 127.879 176.978 127.922C176.791 127.935 172.987 132.493 168.526 138.06C164.066 143.628 159.049 149.824 157.38 151.831C155.71 153.838 154.472 155.568 154.619 155.672C154.764 155.78 162.571 159.052 171.959 162.949C181.347 166.845 189.138 170.016 189.274 169.996C189.703 169.935 212.032 144.133 211.978 143.759C211.975 143.737 211.946 143.71 211.872 143.679L211.872 143.68Z" fill="white" fill-opacity="0.5"/>
<path id="Vector_5" d="M129.912 86.3877L119.305 100.307C111.339 110.757 108.71 114.398 108.746 114.927C108.804 115.783 115.65 137.025 115.957 137.298C116.079 137.403 120.014 132.372 124.709 126.115C129.404 119.858 134.353 113.455 135.703 111.882L138.163 109.026L137.573 108.099C137.252 107.592 135.587 103.016 133.876 97.9331C132.165 92.8503 130.58 88.1782 130.346 87.5446L129.913 86.3883L129.912 86.3877Z" fill="white" fill-opacity="0.5"/>
<path id="Vector_6" d="M173.845 126.569C172.415 125.477 140.642 111.573 139.965 111.737C139.397 111.874 136.759 115.205 128.591 126.094C122.74 133.893 118.056 140.356 118.184 140.45C118.312 140.546 125.854 143.718 134.948 147.507C144.042 151.296 151.687 154.361 151.927 154.318C152.167 154.274 156.751 148.711 162.118 141.961C167.485 135.211 172.446 129.081 173.139 128.338C174.221 127.176 174.318 126.928 173.845 126.569L173.845 126.569Z" fill="white" fill-opacity="0.5"/>
<path id="Vector_7" d="M91.6525 72.3565C91.2695 72.4113 74.543 96.2571 73.7883 97.8242C73.3374 98.7603 73.6162 100.656 75.3571 108.389L77.4801 117.813L80.7875 113.566C82.6045 111.23 87.161 105.011 90.9156 99.7418L97.7445 90.1544L94.8547 81.2289C93.2648 76.3208 91.8222 72.3325 91.6525 72.3565Z" fill="white" fill-opacity="0.5"/>
<path id="Vector_8" d="M98.6984 93.4942C98.6154 93.5253 93.9954 99.7636 88.4462 107.362C80.6485 118.023 78.3714 121.321 78.4487 121.859C78.5035 122.242 79.5869 127.183 80.8619 132.831L83.1832 143.099L88.3984 136.549C91.2657 132.948 96.3131 126.437 99.6104 122.086L105.6 114.183L102.227 103.806C100.37 98.1008 98.7816 93.4625 98.6984 93.4942Z" fill="white" fill-opacity="0.5"/>
<path id="Vector_9" d="M218.547 185.256C218.184 184.985 190.303 173.269 190.06 173.291C189.928 173.303 166.059 200.616 165.304 201.617C165.057 201.945 165.084 202.257 165.364 202.343C165.635 202.426 171.588 204.766 178.59 207.547C185.591 210.328 191.584 212.623 191.905 212.652C192.298 212.687 196.494 208.576 204.793 200.005C211.556 193.02 217.492 186.903 217.995 186.416C218.594 185.835 218.786 185.44 218.547 185.257L218.547 185.256Z" fill="white" fill-opacity="0.5"/>
<path id="Vector_10" d="M187.409 172.156L170.235 165.002C160.787 161.066 152.944 157.856 152.813 157.875C152.55 157.913 133.897 180.979 130.699 185.219L128.691 187.87L145.315 194.429C154.46 198.036 162.087 200.966 162.26 200.942C162.565 200.898 184.827 175.542 186.548 173.278L187.409 172.156Z" fill="white" fill-opacity="0.5"/>
<path id="Vector_11" d="M106.488 117.166C106.411 117.107 101.31 123.786 95.1581 132.009L83.9727 146.961L86.7605 159.166L89.5483 171.372L92.7387 167.521C94.4948 165.406 99.9874 158.301 104.945 151.733L113.961 139.795L110.298 128.536C108.28 122.342 106.567 117.225 106.489 117.167L106.488 117.166Z" fill="white" fill-opacity="0.5"/>
<path id="Vector_12" d="M149.973 156.802C149.942 156.583 116.668 142.555 116.378 142.638C116.33 142.651 110.925 149.616 104.368 158.105C92.6073 173.331 92.4478 173.536 93.163 173.828C93.5623 173.99 101.117 176.972 109.944 180.459L125.991 186.798L128.645 183.663C133.24 178.21 150.013 157.083 149.973 156.802Z" fill="white" fill-opacity="0.5"/>
<path id="Vector_13" d="M70.8112 102.046C70.8002 102.035 70.7888 102.05 70.7835 102.056C70.5654 102.259 66.8254 107.546 62.4837 113.806L54.5979 125.186L54.7331 126.617L55.7579 137.122L56.6567 146.202L61.1364 140.43C63.6034 137.253 67.8481 131.509 70.5514 127.658L75.4693 120.659L73.3294 111.177C72.1193 105.827 71.0813 102.078 70.8073 102.044L70.8112 102.046Z" fill="white" fill-opacity="0.5"/>
<path id="Vector_14" d="M76.334 124.496L71.8765 130.238C69.4208 133.4 65.0818 139.27 62.2508 143.291L57.1007 150.6L58.2608 162.355L59.4305 174.118L62.6647 170.209C64.4449 168.06 69.334 161.76 73.5354 156.201L81.1798 146.091L78.7571 135.294L76.3344 124.497L76.334 124.496Z" fill="white" fill-opacity="0.5"/>
<path id="Vector_15" d="M189.335 214.871C188.295 214.198 184.965 212.835 176.565 209.525C169.175 206.614 163.094 204.238 163.044 204.251C162.995 204.264 158.715 209.149 153.538 215.11C148.361 221.072 143.419 226.703 142.558 227.631C141.097 229.207 141.04 229.339 141.75 229.535C142.169 229.65 148.228 231.416 155.208 233.461C162.188 235.506 168.115 237.152 168.385 237.117C168.896 237.05 189.208 216.327 189.708 215.362C189.767 215.248 189.682 215.096 189.335 214.871Z" fill="white" fill-opacity="0.5"/>
<path id="Vector_16" d="M160.239 203.236C160.122 202.982 127.249 189.994 126.898 190.063C126.766 190.088 122.373 195.495 117.132 202.074C111.892 208.653 106.767 214.985 105.744 216.147C104.721 217.309 103.963 218.318 104.06 218.392C104.158 218.465 111.914 220.77 121.291 223.516L138.331 228.512L139.228 227.658C140.913 226.031 160.338 203.451 160.239 203.236Z" fill="white" fill-opacity="0.5"/>
<path id="Vector_17" d="M81.8837 149.582C81.7787 149.417 76.7755 155.828 70.7707 163.833L59.8492 178.392L61.2025 192.228C61.9455 199.838 62.6331 206.135 62.7251 206.22C62.8141 206.309 67.0759 200.991 72.1908 194.407C77.3056 187.824 82.8575 180.614 84.5275 178.384L87.556 174.322L84.8092 162.101C83.2975 155.38 81.9848 149.746 81.8814 149.58L81.8837 149.582Z" fill="white" fill-opacity="0.5"/>
<path id="Vector_18" d="M124.172 189.061C124.147 188.882 114.298 184.931 91.5353 175.978C90.9235 175.737 90.1103 176.749 78.9253 191.66C72.3222 200.462 67.1333 207.637 67.3239 207.69L84.5712 212.752L101.468 217.716L102.888 215.849C103.661 214.818 108.772 208.422 114.248 201.633C119.723 194.843 124.193 189.186 124.175 189.063L124.172 189.061Z" fill="white" fill-opacity="0.5"/>
<path id="Vector_19" d="M144.219 54.2298L131.824 47.7587C125.003 44.2017 119.295 41.3067 119.14 41.3287C118.986 41.3507 118.972 41.6494 119.114 41.989C119.255 42.3286 120.539 45.9894 121.967 50.1163C123.395 54.2433 124.771 57.7786 125.017 57.9819C125.263 58.1853 131.084 61.0184 137.956 64.2718C144.828 67.5251 150.615 70.1821 150.814 70.1672C151.012 70.1523 149.616 66.5541 147.704 62.1805L144.219 54.2298Z" fill="white" fill-opacity="0.5"/>
<path id="Vector_20" d="M164.579 100.828L150.241 94.7293C142.352 91.3718 135.835 88.7052 135.773 88.8045C135.603 89.0732 142.128 107.615 142.488 107.886C142.658 108.015 149.704 111.233 158.141 115.033C166.579 118.833 173.554 121.928 173.645 121.916C173.735 121.903 171.73 117.156 169.193 111.365L164.579 100.828Z" fill="white" fill-opacity="0.5"/>
<path id="Vector_21" d="M152.154 73.7873C151.738 73.6028 145.853 70.8239 139.084 67.6115C132.314 64.3991 126.604 61.7045 126.396 61.6312C126.186 61.5585 127.892 66.8291 130.182 73.3308L134.348 85.1489L145.358 89.8398L159.58 95.9119C161.344 96.6624 162.754 97.0891 162.722 96.8627C162.69 96.6362 160.47 91.4251 157.786 85.2838C154.456 77.6656 152.671 74.0156 152.154 73.7873Z" fill="white" fill-opacity="0.5"/>
<path id="Vector_22" d="M188.658 85.2048L160.93 77.2572L174.136 99.3315L204.25 105.432L188.658 85.2056L188.658 85.2048Z" fill="white" fill-opacity="0.5"/>
<path id="Vector_23" d="M224.039 99.5678L202.654 89.6634L207.098 111.698L231.715 122.091L224.039 99.5678Z" fill="white" fill-opacity="0.5"/>
<path id="Vector_24" d="M186.399 62.7286L156.154 41.3117L158.515 61.3879L189.195 80.5976L186.399 62.7286Z" fill="white" fill-opacity="0.5"/>
<path id="Vector_25" d="M237.792 122.437L211.944 116.146L224.949 136.587L254.254 144.647L237.792 122.436L237.792 122.437Z" fill="white" fill-opacity="0.5"/>
<path id="Vector_26" d="M202.418 117.001L185.481 109.753C176.164 105.767 168.48 102.59 168.405 102.689C168.33 102.788 170.336 107.565 172.85 113.31L177.415 123.749L194.721 131.575C204.238 135.873 212.127 139.369 212.244 139.353C212.361 139.335 210.2 134.3 207.441 128.161L202.418 117L202.418 117.001Z" fill="white" fill-opacity="0.5"/>
<path id="Vector_27" d="M252.097 147.013L222.985 139.303L201.038 164.985L228.692 171.071L252.097 147.013Z" fill="white" fill-opacity="0.5"/>
</g>
</g>
<defs>
<clipPath id="clip0_577_2091">
<rect width="185.097" height="210.484" fill="white" transform="translate(149) rotate(45)"/>
</clipPath>
</defs>
</svg>
