<svg width="129" height="121" viewBox="0 0 129 121" fill="none" xmlns="http://www.w3.org/2000/svg">
<g id="Cycler">
<g id="Group">
<path id="Vector" d="M92.9718 64.8169L91.6627 65.0489C91.6627 65.0489 91.2874 63.2017 91.0877 62.0591C90.8881 60.9165 90.711 59.9639 92.072 59.3957C92.8806 59.0582 93.7957 58.7571 94.987 58.2592C95.8023 57.9193 96.3546 57.1098 96.2841 56.4244C96.2149 55.7396 96.0585 54.4995 95.9826 53.9134C95.9067 53.3272 95.4768 52.7498 94.1684 52.9743C92.8607 53.1983 88.1361 54.0078 88.1361 54.0078L87.239 52.2599C87.239 52.2599 91.9868 51.4603 94.0752 50.9809C96.165 50.5022 97.8334 51.4579 97.8334 52.8207C97.8334 54.1842 98.1362 55.7704 98.278 57.4152C98.4191 59.0588 97.8454 59.4598 96.7307 59.938C95.3064 60.55 92.3848 61.7716 92.3848 61.7716L92.9718 64.8169Z" fill="#B7B6B6"/>
<path id="Vector_2" d="M92.2174 51.1352L85.4043 52.4614L85.9259 54.7644L92.739 53.4382L92.2174 51.1352Z" fill="#462A29"/>
<path id="Vector_3" d="M92.1626 50.9291L91.3628 51.0845L91.9742 53.789L92.774 53.6336L92.1626 50.9291Z" fill="#583636"/>
<path id="Vector_4" d="M64.6013 98.2927C68.2324 93.4804 69.7564 91.748 70.1484 92.0021C70.5411 92.2563 68.0873 95.794 65.6761 98.9898C64.6286 100.379 63.5385 101.348 63.2417 101.156C62.9448 100.964 63.5538 99.6815 64.6013 98.2927Z" fill="#8E8E8D"/>
<g id="Group_2">
<path id="Vector_5" d="M72.1488 92.2946C72.1848 92.7252 71.8374 93.1022 71.3728 93.1355L67.2559 93.4329C66.7914 93.4668 66.3848 93.1435 66.3488 92.7129C66.3122 92.2822 66.6603 91.9053 67.1255 91.872L71.2417 91.5752C71.7063 91.5413 72.1122 91.8639 72.1488 92.2946Z" fill="#8A8989"/>
<path id="Vector_6" d="M71.5572 91.9125C71.5672 92.0244 71.476 92.1209 71.3549 92.1295L67.1129 92.4327C66.9918 92.4412 66.886 92.3581 66.8766 92.2462C66.8673 92.1356 66.9578 92.0378 67.079 92.0299L71.3216 91.7267C71.4421 91.7181 71.5479 91.8013 71.5572 91.9125Z" fill="#5C5C5B"/>
<path id="Vector_7" d="M68.7996 92.788C68.8089 92.8992 68.7184 92.9964 68.5973 93.0049L67.4293 93.0887C67.3082 93.0979 67.2024 93.0141 67.193 92.9029C67.1837 92.7916 67.2742 92.6944 67.3947 92.6859L68.5633 92.6027C68.6845 92.5936 68.7903 92.6761 68.7996 92.788Z" fill="#5C5C5B"/>
<path id="Vector_8" d="M69.5486 92.7334C69.5612 92.8801 69.4414 93.0084 69.2817 93.02C69.122 93.0316 68.9822 92.9216 68.9696 92.7749C68.9576 92.6288 69.0767 92.4998 69.2365 92.4888C69.3962 92.4766 69.5359 92.586 69.5486 92.7334Z" fill="#5C5C5B"/>
<path id="Vector_9" d="M71.3242 92.6059C71.3335 92.7178 71.243 92.815 71.1219 92.8229L69.9532 92.9067C69.8321 92.9152 69.7263 92.8321 69.717 92.7209C69.7076 92.609 69.7988 92.5124 69.9199 92.5039L71.0879 92.4201C71.2091 92.411 71.3149 92.4947 71.3242 92.6059Z" fill="#5C5C5B"/>
</g>
<path id="Vector_10" d="M50.1201 70.1142L92.7314 66.3452" stroke="#7C5DA4" stroke-width="4.4755" stroke-miterlimit="10" stroke-linecap="round" stroke-linejoin="round"/>
<path id="Vector_11" d="M63.8975 100.472L94.3117 73.3383" stroke="#7C5DA4" stroke-width="4.4755" stroke-miterlimit="10" stroke-linecap="round" stroke-linejoin="round"/>
<g id="Group_3">
<g id="Group_4">
<path id="Vector_12" d="M26.3811 97.6424L29.9569 80.4409" stroke="#C6C6C6" stroke-width="0.3197" stroke-miterlimit="10" stroke-linecap="round" stroke-linejoin="round"/>
<path id="Vector_13" d="M28.0421 97.6424L24.4656 80.4409" stroke="#C6C6C6" stroke-width="0.3197" stroke-miterlimit="10" stroke-linecap="round" stroke-linejoin="round"/>
</g>
<g id="Group_5">
<path id="Vector_14" d="M28.0418 100.791L24.4653 117.991" stroke="#C6C6C6" stroke-width="0.3197" stroke-miterlimit="10" stroke-linecap="round" stroke-linejoin="round"/>
<path id="Vector_15" d="M26.3809 100.791L29.9567 117.991" stroke="#C6C6C6" stroke-width="0.3197" stroke-miterlimit="10" stroke-linecap="round" stroke-linejoin="round"/>
</g>
<g id="Group_6">
<path id="Vector_16" d="M28.9097 98.4469L47.4644 101.762" stroke="#C6C6C6" stroke-width="0.3197" stroke-miterlimit="10" stroke-linecap="round" stroke-linejoin="round"/>
<path id="Vector_17" d="M28.9097 99.9864L47.4644 96.6715" stroke="#C6C6C6" stroke-width="0.3197" stroke-miterlimit="10" stroke-linecap="round" stroke-linejoin="round"/>
</g>
<g id="Group_7">
<path id="Vector_18" d="M25.5139 99.9864L6.9585 96.6715" stroke="#C6C6C6" stroke-width="0.3197" stroke-miterlimit="10" stroke-linecap="round" stroke-linejoin="round"/>
<path id="Vector_19" d="M25.5139 98.4469L6.9585 101.762" stroke="#C6C6C6" stroke-width="0.3197" stroke-miterlimit="10" stroke-linecap="round" stroke-linejoin="round"/>
</g>
<g id="Group_8">
<path id="Vector_20" d="M27.8254 97.559L43.4745 87.7407" stroke="#C6C6C6" stroke-width="0.3197" stroke-miterlimit="10" stroke-linecap="round" stroke-linejoin="round"/>
<path id="Vector_21" d="M29.0005 98.6478L39.5922 84.1412" stroke="#C6C6C6" stroke-width="0.3197" stroke-miterlimit="10" stroke-linecap="round" stroke-linejoin="round"/>
</g>
<g id="Group_9">
<path id="Vector_22" d="M26.598 100.875L10.949 110.693" stroke="#C6C6C6" stroke-width="0.3197" stroke-miterlimit="10" stroke-linecap="round" stroke-linejoin="round"/>
<path id="Vector_23" d="M25.4222 99.7854L14.8298 114.293" stroke="#C6C6C6" stroke-width="0.3197" stroke-miterlimit="10" stroke-linecap="round" stroke-linejoin="round"/>
</g>
<g id="Group_10">
<path id="Vector_24" d="M29.0005 99.7854L39.5922 114.293" stroke="#C6C6C6" stroke-width="0.3197" stroke-miterlimit="10" stroke-linecap="round" stroke-linejoin="round"/>
<path id="Vector_25" d="M27.8254 100.875L43.4745 110.693" stroke="#C6C6C6" stroke-width="0.3197" stroke-miterlimit="10" stroke-linecap="round" stroke-linejoin="round"/>
</g>
<g id="Group_11">
<path id="Vector_26" d="M25.4222 98.6478L14.8298 84.1412" stroke="#C6C6C6" stroke-width="0.3197" stroke-miterlimit="10" stroke-linecap="round" stroke-linejoin="round"/>
<path id="Vector_27" d="M26.598 97.5587L10.949 87.7397" stroke="#C6C6C6" stroke-width="0.3197" stroke-miterlimit="10" stroke-linecap="round" stroke-linejoin="round"/>
</g>
<g id="Group_12">
<path id="Vector_28" d="M28.4785 97.9161L47.0299 94.5851" stroke="#C6C6C6" stroke-width="0.3197" stroke-miterlimit="10" stroke-linecap="round" stroke-linejoin="round"/>
<path id="Vector_29" d="M29.0977 99.3449L44.9856 89.8616" stroke="#C6C6C6" stroke-width="0.3197" stroke-miterlimit="10" stroke-linecap="round" stroke-linejoin="round"/>
</g>
<g id="Group_13">
<path id="Vector_30" d="M25.9439 100.517L7.39185 103.849" stroke="#C6C6C6" stroke-width="0.3197" stroke-miterlimit="10" stroke-linecap="round" stroke-linejoin="round"/>
<path id="Vector_31" d="M25.3255 99.0885L9.43823 108.572" stroke="#C6C6C6" stroke-width="0.3197" stroke-miterlimit="10" stroke-linecap="round" stroke-linejoin="round"/>
</g>
<g id="Group_14">
<path id="Vector_32" d="M28.6155 100.391L32.208 117.589" stroke="#C6C6C6" stroke-width="0.3197" stroke-miterlimit="10" stroke-linecap="round" stroke-linejoin="round"/>
<path id="Vector_33" d="M27.0737 100.965L37.3034 115.694" stroke="#C6C6C6" stroke-width="0.3197" stroke-miterlimit="10" stroke-linecap="round" stroke-linejoin="round"/>
</g>
<g id="Group_15">
<path id="Vector_34" d="M25.8079 98.0417L22.2141 80.8433" stroke="#C6C6C6" stroke-width="0.3197" stroke-miterlimit="10" stroke-linecap="round" stroke-linejoin="round"/>
<path id="Vector_35" d="M27.3486 97.4685L17.1189 82.7397" stroke="#C6C6C6" stroke-width="0.3197" stroke-miterlimit="10" stroke-linecap="round" stroke-linejoin="round"/>
</g>
<g id="Group_16">
<path id="Vector_36" d="M29.0977 99.104L44.8911 108.723" stroke="#C6C6C6" stroke-width="0.3197" stroke-miterlimit="10" stroke-linecap="round" stroke-linejoin="round"/>
<path id="Vector_37" d="M28.4644 100.528L46.9825 104.017" stroke="#C6C6C6" stroke-width="0.3197" stroke-miterlimit="10" stroke-linecap="round" stroke-linejoin="round"/>
</g>
<g id="Group_17">
<path id="Vector_38" d="M25.325 99.328L9.53223 89.7096" stroke="#C6C6C6" stroke-width="0.3197" stroke-miterlimit="10" stroke-linecap="round" stroke-linejoin="round"/>
<path id="Vector_39" d="M25.9585 97.9049L7.44043 94.4148" stroke="#C6C6C6" stroke-width="0.3197" stroke-miterlimit="10" stroke-linecap="round" stroke-linejoin="round"/>
</g>
<g id="Group_18">
<path id="Vector_40" d="M27.3315 100.965L16.9561 115.606" stroke="#C6C6C6" stroke-width="0.3197" stroke-miterlimit="10" stroke-linecap="round" stroke-linejoin="round"/>
<path id="Vector_41" d="M25.797 100.379L22.0334 117.546" stroke="#C6C6C6" stroke-width="0.3197" stroke-miterlimit="10" stroke-linecap="round" stroke-linejoin="round"/>
</g>
<g id="Group_19">
<path id="Vector_42" d="M27.0908 97.4679L37.4669 82.8268" stroke="#C6C6C6" stroke-width="0.3197" stroke-miterlimit="10" stroke-linecap="round" stroke-linejoin="round"/>
<path id="Vector_43" d="M28.6277 98.0539L32.3919 80.8882" stroke="#C6C6C6" stroke-width="0.3197" stroke-miterlimit="10" stroke-linecap="round" stroke-linejoin="round"/>
</g>
</g>
<path id="Vector_44" d="M47.6543 61.9351L45.4346 62.808L47.8993 68.1947L50.1191 67.3218L47.6543 61.9351Z" fill="#C6C6C6"/>
<path id="Vector_45" d="M48.0329 63.0389L46.1042 63.7977L44.8977 61.1615L41.0356 59.5888L43.6511 59.4241L45.4354 60.5797L46.5175 59.2446L48.0329 59.1489L46.8124 60.3724L48.0329 63.0389Z" fill="#352E35"/>
<path id="Vector_46" d="M47.9074 61.4788L44.8391 62.6853L45.7253 64.6221L48.7936 63.4156L47.9074 61.4788Z" fill="#B4B4B4"/>
<path id="Vector_47" d="M95.0724 64.2317L91.5972 64.8053L92.8834 71.5019L96.3586 70.9282L95.0724 64.2317Z" fill="#7C5DA4"/>
<path id="Vector_48" d="M95.1598 65.0377L92.7466 65.4369C92.7466 65.4369 92.3273 63.3732 92.1044 62.0973C91.8821 60.8208 91.8349 60.0416 93.3556 59.4067C94.2587 59.0304 96.0802 58.269 97.4113 57.7138C98.321 57.3343 98.938 56.4299 98.8601 55.6648C98.7822 54.8998 98.6079 53.5147 98.5233 52.8601C98.4388 52.2049 97.9583 51.5608 96.4975 51.8107C95.0367 52.0606 89.7598 52.965 89.7598 52.965L88.7568 51.0123C88.7568 51.0123 94.0604 50.1196 96.3937 49.5847C98.7276 49.0498 100.592 50.1165 100.592 51.6398C100.592 53.1624 100.931 54.935 101.088 56.7704C101.245 58.6077 100.604 59.055 99.3606 59.5893C97.7686 60.2717 94.5063 61.6358 94.5063 61.6358L95.1598 65.0377Z" fill="#DADADA"/>
<path id="Vector_49" d="M93.1473 64.5552L91.5925 64.8119L92.8787 71.5079L94.4335 71.2512L93.1473 64.5552Z" fill="#EDEDED"/>
<path id="Vector_50" d="M94.8946 64.2331L94.4937 64.2993L95.7815 70.9965L96.1825 70.9302L94.8946 64.2331Z" fill="#D8D0E8"/>
<path id="Vector_51" d="M94.3563 64.3432L94.1558 64.3763L95.4436 71.0735L95.6441 71.0404L94.3563 64.3432Z" fill="#D8D0E8"/>
<path id="Vector_52" d="M92.5883 64.6459L91.5962 64.8091L92.878 71.5063L93.8701 71.3431L92.5883 64.6459Z" fill="#EDEDED"/>
<path id="Vector_53" d="M95.1685 63.273L91.0591 63.9525L91.5582 66.5467L95.6677 65.8672L95.1685 63.273Z" fill="#B4B4B4"/>
<path id="Vector_54" d="M63.897 100.473L48.6499 66.8745" stroke="#7C5DA4" stroke-width="4.7952" stroke-miterlimit="10"/>
<path id="Vector_55" d="M26.9488 77.394C13.9059 77.394 3.3335 87.1957 3.3335 99.2863C3.3335 111.378 13.9059 121.179 26.9488 121.179C39.9917 121.179 50.5641 111.377 50.5641 99.2863C50.5641 87.1951 39.991 77.394 26.9488 77.394ZM26.9488 118.418C15.5511 118.418 6.31103 109.852 6.31103 99.2863C6.31103 88.7202 15.5511 80.1543 26.9488 80.1543C38.3465 80.1543 47.5859 88.7202 47.5859 99.2863C47.5859 109.852 38.3465 118.418 26.9488 118.418Z" fill="#3E464C"/>
<path id="Vector_56" d="M3.47707 96.1872C5.1016 85.5187 14.9912 77.3113 26.9486 77.3113C39.2488 77.3113 49.3613 85.9969 50.5387 97.1127C50.5579 98.8285 52.9751 98.892 52.8573 97.8388C52.05 85.2238 40.7588 75.2241 26.948 75.2241C12.8256 75.2241 1.33875 85.6792 1 98.6952C1 98.6952 3.33731 98.8932 3.47707 96.1872Z" fill="#7C5DA4"/>
<path id="Vector_57" d="M26.9481 79.7603C15.3155 79.7603 5.88574 88.5026 5.88574 99.2859C5.88574 110.069 15.3155 118.811 26.9481 118.811C38.5801 118.811 48.0105 110.069 48.0105 99.2859C48.0105 88.5026 38.5801 79.7603 26.9481 79.7603ZM26.9481 117.76C15.9417 117.76 7.01979 109.489 7.01979 99.2859C7.01979 89.0832 15.9417 80.8116 26.9481 80.8116C37.9538 80.8116 46.8758 89.0832 46.8758 99.2859C46.8758 109.489 37.9538 117.76 26.9481 117.76Z" fill="#C6C6C6"/>
<g id="Group_20">
<path id="Vector_58" d="M63.8951 93.4175C59.6923 93.4175 56.2842 96.5763 56.2842 100.473C56.2842 104.37 59.6916 107.528 63.8951 107.528C68.0985 107.528 71.5053 104.37 71.5053 100.473C71.5053 96.5763 68.0985 93.4175 63.8951 93.4175ZM66.852 96.8792C66.1598 97.8411 64.9326 99.3107 63.8957 99.3107C62.8509 99.3107 61.6137 97.8201 60.9242 96.8576C60.5961 96.4005 60.9788 95.6972 61.2982 95.5528C62.0822 95.1956 62.964 94.9957 63.8957 94.9957C64.8168 94.9957 65.6886 95.1912 66.466 95.5404C66.7947 95.6879 67.1887 96.411 66.852 96.8792ZM57.9866 100.473C57.9866 99.5569 58.2295 98.6925 58.6594 97.9336C58.7998 97.6862 59.5166 97.4647 60.0251 97.8226C61.0633 98.5549 62.6419 99.7808 62.6419 100.473C62.6419 101.144 61.1564 102.318 60.1196 103.056C59.5645 103.452 58.7007 103.109 58.5323 102.774C58.1822 102.073 57.9866 101.294 57.9866 100.473ZM61.1139 103.9C61.8659 102.945 63.0505 101.635 63.8951 101.635C64.8002 101.635 66.0959 103.14 66.8313 104.101C67.1767 104.551 66.7501 105.282 66.3954 105.436C65.6361 105.765 64.7889 105.95 63.8951 105.95C63.1324 105.95 62.405 105.816 61.7368 105.573C61.2549 105.396 60.6813 104.45 61.1139 103.9ZM67.7657 103.111C66.7275 102.367 65.1489 101.126 65.1489 100.473C65.1489 99.7901 66.8706 98.4685 67.9002 97.7393C68.3394 97.4277 69.0036 97.7041 69.1473 97.9632C69.566 98.7153 69.8029 99.568 69.8029 100.472C69.8029 101.321 69.5946 102.125 69.2225 102.842C69.0622 103.153 68.2735 103.475 67.7657 103.111Z" fill="#C6C6C6"/>
<path id="Vector_59" d="M64.9761 100.473C64.9761 101.027 64.4916 101.476 63.8946 101.476C63.297 101.476 62.8125 101.027 62.8125 100.473C62.8125 99.9194 63.2963 99.4702 63.8946 99.4702C64.4923 99.4702 64.9761 99.9187 64.9761 100.473Z" fill="#8A8989"/>
</g>
<g id="Group_21">
<path id="Vector_60" d="M29.7793 97.0088C29.7793 97.0088 30.3184 97.0045 31.2608 96.9965C32.2025 96.9983 33.5475 97.0094 35.158 97.0471C35.964 97.0569 36.8352 97.097 37.7576 97.1236C38.68 97.1495 39.6516 97.1896 40.6566 97.2395C41.6608 97.2895 42.7004 97.3253 43.7539 97.3919C44.8074 97.4549 45.8776 97.5196 46.9484 97.5838C48.0192 97.6406 49.0867 97.735 50.1396 97.8084C51.1918 97.8867 52.2273 97.9639 53.2296 98.0391C55.2321 98.2076 57.0949 98.4253 58.6848 98.6832C60.2774 98.9183 61.5958 99.2033 62.5182 99.4094C63.4393 99.6259 63.9631 99.7857 63.9631 99.7857C64.3644 99.9085 64.5827 100.31 64.4502 100.682C64.3564 100.946 64.1108 101.124 63.8333 101.162C63.8333 101.162 63.2882 101.235 62.3399 101.299C61.3928 101.353 60.0412 101.421 58.4293 101.396C56.8147 101.394 54.9393 101.308 52.9361 101.151C51.9351 101.063 50.9009 100.972 49.8501 100.88C48.7992 100.783 47.7304 100.704 46.6649 100.587C45.5987 100.478 44.5326 100.369 43.4837 100.261C42.4342 100.157 41.4033 100.025 40.405 99.9122C39.4067 99.7993 38.4424 99.6821 37.5286 99.5593C36.6155 99.4365 35.7504 99.336 34.9544 99.2157C33.3605 98.9936 32.0348 98.7875 31.107 98.6376C30.18 98.4778 29.6502 98.3865 29.6502 98.3865C29.2442 98.3161 28.976 97.954 29.0519 97.5776C29.1171 97.2439 29.4286 97.0119 29.7793 97.0088Z" fill="#7C5DA4"/>
</g>
<g id="Group_22">
<path id="Vector_61" d="M25.6634 98.4081C25.6634 98.4081 26.1266 98.0218 26.8614 97.2926C27.2341 96.9317 27.666 96.4801 28.1552 95.9575C28.6436 95.4343 29.1781 94.8321 29.7457 94.1658C30.3094 93.4958 30.9124 92.7653 31.53 91.9787C32.1489 91.1933 32.8025 90.3647 33.4773 89.5078C34.8336 87.7982 36.2612 85.9602 37.6847 84.1205C40.5345 80.4421 43.3463 76.7379 45.4101 73.9289C46.4423 72.5247 47.3022 71.3543 47.9038 70.535C48.4961 69.7089 48.8342 69.2369 48.8342 69.2369C49.3227 68.5558 50.3143 68.3707 51.049 68.8235C51.7838 69.2764 51.9834 70.1957 51.4949 70.8768C51.467 70.9163 51.4357 70.9551 51.4038 70.9915C51.4038 70.9915 51.0178 71.4308 50.3429 72.2008C49.6774 72.9769 48.727 74.0856 47.587 75.4158C45.3063 78.0767 42.3254 81.6656 39.3818 85.2797C37.909 87.0862 36.4402 88.8951 35.0812 90.6035C34.3991 91.4555 33.7395 92.2798 33.1139 93.0609C32.487 93.8413 31.9133 94.5915 31.3909 95.2893C30.8725 95.9902 30.4113 96.6417 30.0173 97.2297C29.6246 97.8182 29.2872 98.3346 29.0257 98.7715C28.4926 99.6377 28.2324 100.163 28.2324 100.163C27.8563 100.92 26.8887 101.252 26.0707 100.903C25.2535 100.554 24.8961 99.6568 25.2721 98.8992C25.368 98.7085 25.5064 98.5407 25.6634 98.4081Z" fill="#7C5DA4"/>
</g>
<path id="Vector_62" d="M24.9553 102.045C25.9196 102.54 26.5931 101.455 25.7499 100.935C25.1789 100.579 24.8029 99.9721 24.8029 99.2855C24.8029 98.1873 25.7632 97.2964 26.9485 97.2964C28.0999 97.2964 29.0376 98.1391 29.0888 99.1954C29.0829 100.46 30.5244 100.485 30.5244 99.1824C30.4651 97.3963 28.8892 95.9644 26.9485 95.9644C24.9699 95.9644 23.3667 97.4512 23.3667 99.2848C23.3667 100.435 23.9976 101.448 24.9553 102.045Z" fill="#7C5DA4"/>
<g id="Group_23">
<g id="Group_24">
<path id="Vector_63" d="M104.816 97.6424L108.393 80.4409" stroke="#C6C6C6" stroke-width="0.3197" stroke-miterlimit="10" stroke-linecap="round" stroke-linejoin="round"/>
<path id="Vector_64" d="M106.478 97.6424L102.902 80.4409" stroke="#C6C6C6" stroke-width="0.3197" stroke-miterlimit="10" stroke-linecap="round" stroke-linejoin="round"/>
</g>
<g id="Group_25">
<path id="Vector_65" d="M106.478 100.791L102.902 117.991" stroke="#C6C6C6" stroke-width="0.3197" stroke-miterlimit="10" stroke-linecap="round" stroke-linejoin="round"/>
<path id="Vector_66" d="M104.816 100.791L108.393 117.991" stroke="#C6C6C6" stroke-width="0.3197" stroke-miterlimit="10" stroke-linecap="round" stroke-linejoin="round"/>
</g>
<g id="Group_26">
<path id="Vector_67" d="M107.345 98.4469L125.899 101.762" stroke="#C6C6C6" stroke-width="0.3197" stroke-miterlimit="10" stroke-linecap="round" stroke-linejoin="round"/>
<path id="Vector_68" d="M107.345 99.9864L125.899 96.6715" stroke="#C6C6C6" stroke-width="0.3197" stroke-miterlimit="10" stroke-linecap="round" stroke-linejoin="round"/>
</g>
<g id="Group_27">
<path id="Vector_69" d="M103.949 99.9864L85.3936 96.6715" stroke="#C6C6C6" stroke-width="0.3197" stroke-miterlimit="10" stroke-linecap="round" stroke-linejoin="round"/>
<path id="Vector_70" d="M103.949 98.4469L85.3936 101.762" stroke="#C6C6C6" stroke-width="0.3197" stroke-miterlimit="10" stroke-linecap="round" stroke-linejoin="round"/>
</g>
<g id="Group_28">
<path id="Vector_71" d="M106.26 97.559L121.909 87.7407" stroke="#C6C6C6" stroke-width="0.3197" stroke-miterlimit="10" stroke-linecap="round" stroke-linejoin="round"/>
<path id="Vector_72" d="M107.434 98.6478L118.026 84.1412" stroke="#C6C6C6" stroke-width="0.3197" stroke-miterlimit="10" stroke-linecap="round" stroke-linejoin="round"/>
</g>
<g id="Group_29">
<path id="Vector_73" d="M105.033 100.875L89.3838 110.693" stroke="#C6C6C6" stroke-width="0.3197" stroke-miterlimit="10" stroke-linecap="round" stroke-linejoin="round"/>
<path id="Vector_74" d="M103.858 99.7854L93.2661 114.293" stroke="#C6C6C6" stroke-width="0.3197" stroke-miterlimit="10" stroke-linecap="round" stroke-linejoin="round"/>
</g>
<g id="Group_30">
<path id="Vector_75" d="M107.434 99.7854L118.026 114.293" stroke="#C6C6C6" stroke-width="0.3197" stroke-miterlimit="10" stroke-linecap="round" stroke-linejoin="round"/>
<path id="Vector_76" d="M106.26 100.875L121.909 110.693" stroke="#C6C6C6" stroke-width="0.3197" stroke-miterlimit="10" stroke-linecap="round" stroke-linejoin="round"/>
</g>
<g id="Group_31">
<path id="Vector_77" d="M103.858 98.6478L93.2661 84.1412" stroke="#C6C6C6" stroke-width="0.3197" stroke-miterlimit="10" stroke-linecap="round" stroke-linejoin="round"/>
<path id="Vector_78" d="M105.033 97.5587L89.384 87.7397" stroke="#C6C6C6" stroke-width="0.3197" stroke-miterlimit="10" stroke-linecap="round" stroke-linejoin="round"/>
</g>
<g id="Group_32">
<path id="Vector_79" d="M106.914 97.9161L125.465 94.5851" stroke="#C6C6C6" stroke-width="0.3197" stroke-miterlimit="10" stroke-linecap="round" stroke-linejoin="round"/>
<path id="Vector_80" d="M107.533 99.3449L123.42 89.8616" stroke="#C6C6C6" stroke-width="0.3197" stroke-miterlimit="10" stroke-linecap="round" stroke-linejoin="round"/>
</g>
<g id="Group_33">
<path id="Vector_81" d="M104.378 100.517L85.8269 103.849" stroke="#C6C6C6" stroke-width="0.3197" stroke-miterlimit="10" stroke-linecap="round" stroke-linejoin="round"/>
<path id="Vector_82" d="M103.761 99.0885L87.8733 108.572" stroke="#C6C6C6" stroke-width="0.3197" stroke-miterlimit="10" stroke-linecap="round" stroke-linejoin="round"/>
</g>
<g id="Group_34">
<path id="Vector_83" d="M107.05 100.391L110.643 117.589" stroke="#C6C6C6" stroke-width="0.3197" stroke-miterlimit="10" stroke-linecap="round" stroke-linejoin="round"/>
<path id="Vector_84" d="M105.508 100.965L115.738 115.694" stroke="#C6C6C6" stroke-width="0.3197" stroke-miterlimit="10" stroke-linecap="round" stroke-linejoin="round"/>
</g>
<g id="Group_35">
<path id="Vector_85" d="M104.242 98.0417L100.65 80.8433" stroke="#C6C6C6" stroke-width="0.3197" stroke-miterlimit="10" stroke-linecap="round" stroke-linejoin="round"/>
<path id="Vector_86" d="M105.785 97.4685L95.5544 82.7397" stroke="#C6C6C6" stroke-width="0.3197" stroke-miterlimit="10" stroke-linecap="round" stroke-linejoin="round"/>
</g>
<g id="Group_36">
<path id="Vector_87" d="M107.534 99.104L123.326 108.723" stroke="#C6C6C6" stroke-width="0.3197" stroke-miterlimit="10" stroke-linecap="round" stroke-linejoin="round"/>
<path id="Vector_88" d="M106.901 100.528L125.418 104.017" stroke="#C6C6C6" stroke-width="0.3197" stroke-miterlimit="10" stroke-linecap="round" stroke-linejoin="round"/>
</g>
<g id="Group_37">
<path id="Vector_89" d="M103.76 99.328L87.967 89.7096" stroke="#C6C6C6" stroke-width="0.3197" stroke-miterlimit="10" stroke-linecap="round" stroke-linejoin="round"/>
<path id="Vector_90" d="M104.393 97.9049L85.8755 94.4148" stroke="#C6C6C6" stroke-width="0.3197" stroke-miterlimit="10" stroke-linecap="round" stroke-linejoin="round"/>
</g>
<g id="Group_38">
<path id="Vector_91" d="M105.766 100.965L95.3911 115.606" stroke="#C6C6C6" stroke-width="0.3197" stroke-miterlimit="10" stroke-linecap="round" stroke-linejoin="round"/>
<path id="Vector_92" d="M104.231 100.379L100.467 117.546" stroke="#C6C6C6" stroke-width="0.3197" stroke-miterlimit="10" stroke-linecap="round" stroke-linejoin="round"/>
</g>
<g id="Group_39">
<path id="Vector_93" d="M105.525 97.4679L115.902 82.8268" stroke="#C6C6C6" stroke-width="0.3197" stroke-miterlimit="10" stroke-linecap="round" stroke-linejoin="round"/>
<path id="Vector_94" d="M107.061 98.0539L110.825 80.8882" stroke="#C6C6C6" stroke-width="0.3197" stroke-miterlimit="10" stroke-linecap="round" stroke-linejoin="round"/>
</g>
</g>
<path id="Vector_95" d="M105.384 77.394C92.341 77.394 81.7686 87.1957 81.7686 99.2863C81.7686 111.378 92.3417 121.179 105.384 121.179C118.427 121.179 129 111.377 129 99.2863C129.001 87.1951 118.427 77.394 105.384 77.394ZM105.384 118.418C93.9862 118.418 84.7468 109.852 84.7468 99.2863C84.7468 88.7202 93.9862 80.1543 105.384 80.1543C116.782 80.1543 126.021 88.7202 126.021 99.2863C126.021 109.852 116.782 118.418 105.384 118.418Z" fill="#3E464C"/>
<path id="Vector_96" d="M81.9136 96.1869C83.5381 85.5184 93.4271 77.3109 105.384 77.3109C106.88 77.438 109.004 75.2959 105.384 75.2231C91.2621 75.2231 79.7759 85.6782 79.4365 98.6942C79.4365 98.6942 81.7732 98.8929 81.9136 96.1869Z" fill="#7C5DA4"/>
<path id="Vector_97" d="M105.384 79.7603C93.751 79.7603 84.3213 88.5026 84.3213 99.2859C84.3213 110.069 93.751 118.811 105.384 118.811C117.016 118.811 126.446 110.069 126.446 99.2859C126.446 88.5026 117.017 79.7603 105.384 79.7603ZM105.384 117.76C94.378 117.76 85.456 109.489 85.456 99.2859C85.456 89.0832 94.378 80.8116 105.384 80.8116C116.39 80.8116 125.312 89.0832 125.312 99.2859C125.312 109.489 116.39 117.76 105.384 117.76Z" fill="#C6C6C6"/>
<g id="Group_40">
<g id="Group_41">
<path id="Vector_98" d="M104.007 100.034C104.007 100.034 103.97 99.9236 103.902 99.7169C103.825 99.5059 103.718 99.2018 103.57 98.8322C103.423 98.4577 103.238 98.0123 103.012 97.507C102.899 97.2553 102.778 96.9875 102.652 96.7049C102.518 96.4267 102.376 96.1349 102.227 95.8301C101.927 95.2236 101.589 94.5715 101.23 93.8836C100.861 93.1994 100.496 92.4676 100.117 91.7106C99.7304 90.9573 99.379 90.1577 98.9863 89.36C98.617 88.5524 98.2356 87.7337 97.8769 86.9051C97.5375 86.0691 97.1595 85.2473 96.8407 84.4175C96.5213 83.5877 96.1785 82.7801 95.913 81.9737C95.6321 81.1729 95.3293 80.4079 95.113 79.6577C94.8941 78.9093 94.6318 78.2158 94.4615 77.5526C94.2824 76.8912 94.1181 76.2847 93.973 75.7474C93.8332 75.2069 93.7573 74.7245 93.6622 74.3333C93.4858 73.5454 93.3847 73.0951 93.3847 73.0951C93.1863 72.2097 93.7999 71.3429 94.755 71.159C95.71 70.9752 96.645 71.544 96.844 72.4294C96.8607 72.5022 96.8713 72.575 96.8766 72.6478L96.8833 72.7496C96.8833 72.7496 96.9132 73.1722 96.9645 73.9119C96.9944 74.2821 97.0217 74.7325 97.0896 75.2489C97.1668 75.7653 97.254 76.3483 97.3492 76.9838C97.435 77.6223 97.6034 78.3059 97.7565 79.0327C97.8995 79.7613 98.1238 80.5183 98.3295 81.3068C98.5325 82.0959 98.814 82.8961 99.0689 83.7173C99.3164 84.5409 99.6472 85.3566 99.944 86.1814C100.258 87.0014 100.595 87.8151 100.92 88.6178C101.273 89.4118 101.61 90.1966 101.969 90.9438C102.323 91.6927 102.665 92.4177 103.011 93.0951C103.345 93.7787 103.703 94.4068 104.039 94.9824C104.38 95.5562 104.723 96.0658 105.039 96.5118C105.363 96.9511 105.648 97.3349 105.91 97.6316C106.162 97.9376 106.377 98.1604 106.523 98.3078C106.677 98.4583 106.76 98.5385 106.76 98.5385L106.763 98.5416C107.387 99.1506 107.359 100.112 106.702 100.691C106.046 101.268 105.008 101.243 104.385 100.635C104.207 100.46 104.079 100.249 104.007 100.034Z" fill="#7C5DA4"/>
</g>
</g>
<path id="Vector_99" d="M103.392 102.045C104.356 102.54 105.03 101.455 104.186 100.935C103.615 100.579 103.239 99.9721 103.239 99.2855C103.239 98.1873 104.199 97.2964 105.384 97.2964C106.536 97.2964 107.474 98.1391 107.525 99.1954C107.519 100.46 108.96 100.485 108.96 99.1824C108.902 97.3963 107.325 95.9644 105.384 95.9644C103.406 95.9644 101.803 97.4512 101.803 99.2848C101.803 100.435 102.434 101.448 103.392 102.045Z" fill="#7C5DA4"/>
<path id="Vector_100" d="M105.383 101.587C106.754 101.587 107.866 100.557 107.866 99.2861C107.866 98.0152 106.754 96.9849 105.383 96.9849C104.012 96.9849 102.901 98.0152 102.901 99.2861C102.901 100.557 104.012 101.587 105.383 101.587Z" fill="#B2B2B2"/>
<path id="Vector_101" d="M106.566 99.2853C106.566 99.8905 106.036 100.381 105.383 100.381C104.73 100.381 104.201 99.8905 104.201 99.2853C104.201 98.6794 104.73 98.189 105.383 98.189C106.036 98.189 106.566 98.6794 106.566 99.2853Z" fill="#8A8989"/>
<g id="Group_42">
<path id="Vector_102" d="M105.383 100.928C106.362 100.928 107.156 100.192 107.156 99.2847C107.156 98.377 106.362 97.6411 105.383 97.6411C104.404 97.6411 103.61 98.377 103.61 99.2847C103.61 100.192 104.404 100.928 105.383 100.928Z" stroke="#929292" stroke-width="0.6394" stroke-linecap="round" stroke-linejoin="round"/>
</g>
<path id="Vector_103" d="M52.7997 57.197C46.5611 57.197 38.2355 54.3189 36.9051 56.3505C35.98 57.7621 38.4691 59.5889 40.3977 59.5889C41.7581 59.5889 51.6976 58.972 52.4856 58.972C53.8718 58.972 54.1866 57.197 52.7997 57.197Z" fill="#621B11"/>
<path id="Vector_104" d="M96.378 68.9835L92.2686 69.6626L92.7674 72.2568L96.8768 71.5777L96.378 68.9835Z" fill="#B4B4B4"/>
<path id="Vector_105" d="M93.416 63.5571L91.0664 63.9458L91.5658 66.54L93.9154 66.1513L93.416 63.5571Z" fill="#EDEDED"/>
<path id="Vector_106" d="M92.2337 63.7463L91.0591 63.9409L91.5591 66.5349L92.7337 66.3403L92.2337 63.7463Z" fill="#EDEDED"/>
<path id="Vector_107" d="M94.3635 69.3174L92.2734 69.6626L92.772 72.2568L94.8621 71.9116L94.3635 69.3174Z" fill="#EDEDED"/>
<path id="Vector_108" d="M96.1661 69.0252L95.6807 69.106L96.1826 71.6996L96.668 71.6189L96.1661 69.0252Z" fill="white"/>
<path id="Vector_109" d="M96.0497 71.7163L95.8327 71.7527L95.3342 69.159L95.5512 69.1226L96.0497 71.7163Z" fill="white"/>
<path id="Vector_110" d="M93.2107 69.5062L92.2686 69.6616L92.7666 72.2558L93.7087 72.1004L93.2107 69.5062Z" fill="#EDEDED"/>
<path id="Vector_111" d="M94.915 63.306L94.4294 63.3861L94.9274 65.9803L95.413 65.9002L94.915 63.306Z" fill="white"/>
<path id="Vector_112" d="M94.7984 66.0063L94.5815 66.0415L94.083 63.4478L94.3 63.4126L94.7984 66.0063Z" fill="white"/>
<path id="Vector_113" d="M94.3025 49.7545L86.6936 51.2358L87.2764 53.8084L94.8852 52.3272L94.3025 49.7545Z" fill="#4F3030"/>
<path id="Vector_114" d="M94.2634 49.5359L93.3696 49.7095L94.0522 52.7307L94.9459 52.5572L94.2634 49.5359Z" fill="#583636"/>
<g id="Group_43">
<path id="Vector_115" d="M63.8239 93.3384C59.8115 93.3384 28.4109 96.4306 27.0726 96.4306C25.3702 96.4306 23.9912 97.7089 23.9912 99.2871C23.9912 100.865 25.3702 102.144 27.0726 102.144C28.4136 102.144 59.9546 107.746 63.8239 107.746C68.1152 107.746 71.5945 104.521 71.5945 100.542C71.5945 96.5638 68.1152 93.3384 63.8239 93.3384Z" stroke="#7E7E7D" stroke-width="0.959" stroke-linecap="round" stroke-linejoin="round"/>
</g>
<path id="Vector_116" d="M29.4309 99.2865C29.4309 100.557 28.3195 101.588 26.9492 101.588C25.5782 101.588 24.4668 100.557 24.4668 99.2865C24.4668 98.0156 25.5782 96.9858 26.9492 96.9858C28.3195 96.9858 29.4309 98.0156 29.4309 99.2865Z" fill="#B2B2B2"/>
<path id="Vector_117" d="M28.1297 99.2853C28.1297 99.8905 27.6006 100.381 26.9478 100.381C26.2949 100.381 25.7651 99.8905 25.7651 99.2853C25.7651 98.6794 26.2949 98.189 26.9478 98.189C27.6006 98.189 28.1297 98.6794 28.1297 99.2853Z" fill="#8A8989"/>
<g id="Group_44">
<path id="Vector_118" d="M28.7199 99.2847C28.7199 100.192 27.9266 100.928 26.9469 100.928C25.9673 100.928 25.1733 100.192 25.1733 99.2847C25.1733 98.3765 25.9673 97.6411 26.9469 97.6411C27.9266 97.6411 28.7199 98.3765 28.7199 99.2847Z" stroke="#929292" stroke-width="0.6394" stroke-linecap="round" stroke-linejoin="round"/>
</g>
<path id="Vector_119" d="M26.9489 99.2861L1.00098 95.5387" stroke="#C6C6C6" stroke-width="0.959" stroke-miterlimit="10" stroke-linecap="round" stroke-linejoin="round"/>
<path id="Vector_120" d="M62.4541 103.172C58.9808 108.082 57.5139 109.857 57.114 109.614C56.7133 109.37 59.0506 105.766 61.3567 102.505C62.3596 101.087 63.4171 100.087 63.7206 100.271C64.0241 100.455 63.4564 101.754 62.4541 103.172Z" fill="#8E8E8D"/>
<g id="Group_45">
<path id="Vector_121" d="M60.3408 109.052C60.3621 109.484 60.0014 109.85 59.5355 109.869L55.412 110.042C54.9461 110.061 54.5508 109.726 54.5301 109.295C54.5095 108.863 54.8702 108.497 55.3361 108.478L59.4603 108.305C59.9248 108.286 60.3195 108.62 60.3408 109.052Z" fill="#8A8989"/>
<path id="Vector_122" d="M59.7631 108.724C59.7684 108.835 59.6746 108.93 59.5534 108.935L55.3028 109.11C55.181 109.115 55.0785 109.029 55.0725 108.919C55.0672 108.807 55.1617 108.713 55.2821 108.707L59.5335 108.531C59.6546 108.526 59.7577 108.612 59.7631 108.724Z" fill="#5C5C5B"/>
<path id="Vector_123" d="M56.9763 109.443C56.9816 109.555 56.8878 109.649 56.7667 109.655L55.5967 109.703C55.4749 109.708 55.3724 109.622 55.3664 109.51C55.3611 109.399 55.4549 109.304 55.5761 109.3L56.7467 109.251C56.8678 109.246 56.971 109.332 56.9763 109.443Z" fill="#5C5C5B"/>
<path id="Vector_124" d="M57.7274 109.412C57.7341 109.559 57.6103 109.683 57.4506 109.69C57.2902 109.697 57.1544 109.583 57.1478 109.436C57.1404 109.289 57.2642 109.164 57.4246 109.158C57.5844 109.151 57.7201 109.265 57.7274 109.412Z" fill="#5C5C5B"/>
<path id="Vector_125" d="M59.5076 109.338C59.5136 109.45 59.4191 109.544 59.2979 109.549L58.1279 109.597C58.0062 109.602 57.9037 109.516 57.8977 109.405C57.8924 109.294 57.9862 109.199 58.1073 109.194L59.278 109.145C59.3991 109.141 59.5022 109.226 59.5076 109.338Z" fill="#5C5C5B"/>
</g>
</g>
<g id="Group_46">
<path id="Vector_126" d="M82.0566 39.9449C80.9033 40.9586 80.1832 39.1441 78.9713 38.9387C77.398 38.6722 76.5707 40.23 75.7808 38.3081C75.7808 36.8355 77.7347 36.34 78.9427 36.4406C80.7322 36.5899 82.6602 39.4137 82.0566 39.9449Z" fill="#F9BB8D"/>
<g id="Group_47">
<g id="Group_48">
<path id="Vector_127" d="M55.82 24.6673C55.82 24.6673 55.8227 24.6889 55.8287 24.7308C55.8346 24.7679 55.8433 24.8215 55.8546 24.8925C55.8839 25.0554 55.9345 25.3083 56.0197 25.6347C56.1847 26.2868 56.4928 27.2283 57.0046 28.3068C57.5284 29.3778 58.2598 30.5864 59.2701 31.7204C59.7672 32.2929 60.3362 32.8427 60.9618 33.3535C61.5781 33.8767 62.2742 34.3332 62.991 34.7645C63.353 34.9749 63.7304 35.1637 64.1037 35.358C64.4931 35.5246 64.8684 35.7158 65.2644 35.8633C66.0497 36.1712 66.8497 36.4278 67.643 36.6308C68.0436 36.7209 68.4329 36.8288 68.8243 36.901C69.2169 36.9695 69.6023 37.0374 69.9756 37.1034C70.735 37.1904 71.4517 37.3014 72.1266 37.3255C72.4627 37.3465 72.7854 37.3662 73.0922 37.3853C73.401 37.3884 73.6939 37.3921 73.9687 37.3946C74.5198 37.4045 75.001 37.4051 75.3983 37.3798C76.1936 37.3477 76.6481 37.3292 76.6481 37.3292L76.8671 39.3485C76.8671 39.3485 76.3859 39.3954 75.5447 39.4762C75.1241 39.5256 74.6096 39.5546 74.0173 39.578C73.7212 39.591 73.4057 39.6046 73.0729 39.6194C72.7389 39.6175 72.3875 39.6157 72.0208 39.6138C71.2867 39.6268 70.4887 39.5521 69.6442 39.5003C69.2222 39.4503 68.7883 39.3991 68.3451 39.3467C67.9018 39.2899 67.4526 39.1943 66.9928 39.1165C66.077 38.9358 65.1379 38.6939 64.2002 38.3861C63.729 38.2386 63.2705 38.0424 62.8006 37.869C62.3441 37.6661 61.8822 37.4649 61.4337 37.2385C60.5439 36.7739 59.6707 36.2668 58.8807 35.6776C58.0814 35.1001 57.3454 34.469 56.6938 33.807C55.3728 32.4935 54.3871 31.0763 53.6677 29.8109C52.9596 28.5369 52.5097 27.4122 52.2442 26.5965C52.1084 26.19 52.0192 25.8586 51.96 25.6224C51.9307 25.4928 51.9074 25.3935 51.8921 25.3268C51.8795 25.2645 51.8728 25.2331 51.8728 25.2331L55.82 24.6673Z" fill="#F9BB8D"/>
</g>
</g>
<path id="Vector_128" d="M58.0129 28.9133C58.0129 28.9133 55.9671 23.5137 55.3582 22.4821C53.7982 19.8385 51.2353 20.4505 50.4626 20.9188C49.3053 21.6202 48.9013 24.1504 51.4682 27.5054C52.2016 28.4648 53.898 31.2775 53.898 31.2775L58.0129 28.9133Z" fill="#C6C6C6"/>
<g id="Group_49">
<g id="Group_50">
<path id="Vector_129" d="M51.4746 49.2319C51.4746 49.2319 52.2187 49.467 53.5198 49.8779C54.1713 50.0846 55.0112 50.3776 55.9463 50.691C56.878 51.0347 57.9209 51.3864 59.0562 51.8577C59.6239 52.0854 60.2149 52.3167 60.8225 52.5956C61.4315 52.8621 62.0597 53.1391 62.6993 53.4668C63.9824 54.0806 65.3195 54.8469 66.6525 55.7594C67.9815 56.6694 69.3039 57.8194 70.3914 59.2353C71.4868 60.6433 72.2635 62.3461 72.6022 64.031C72.9576 65.7196 72.9596 67.3626 72.8365 68.9013C72.7141 70.4455 72.4412 71.8905 72.163 73.2718C71.5867 76.0266 70.9178 78.5018 70.3774 80.6285C69.2733 84.8695 68.6397 87.6964 68.6397 87.6964L65.9996 87.2719C65.9996 87.2719 66.4189 84.3568 67.1922 80.0368C67.5663 77.8787 68.0374 75.367 68.3769 72.7277C68.709 70.1044 68.906 67.2867 68.2178 64.9657C67.8824 63.8052 67.3127 62.8039 66.5274 61.9346C65.7447 61.0653 64.7691 60.3089 63.675 59.674C62.5828 59.0398 61.4481 58.4796 60.2908 58.0243C59.7278 57.7824 59.1521 57.5751 58.5944 57.3758C58.046 57.1673 57.4903 56.9933 56.9612 56.8224C55.915 56.4683 54.9014 56.203 54.0322 55.9469C53.1451 55.7162 52.4057 55.5101 51.7415 55.3485C50.4111 55.0258 49.6511 54.8407 49.6511 54.8407L51.4746 49.2319Z" fill="#F9BB8D"/>
</g>
</g>
<path id="Vector_130" d="M57.4175 57.9535L46.7439 56.4562L52.6577 47.9964L59.5059 51.7821L57.4175 57.9535Z" fill="#323A3E"/>
<path id="Vector_131" d="M68.9862 86.8294C69.299 87.4167 72.4023 88.5032 75.1209 88.9024C76.5811 89.1171 76.7854 91.3974 74.6225 91.7324C72.2858 92.0939 68.1782 91.9952 65.7305 91.5763C64.5112 91.3677 64.3921 88.0244 66.0659 86.6782L68.9862 86.8294Z" fill="#443836"/>
<g id="Group_51">
<path id="Vector_132" d="M48.1865 58.0033C44.3837 58.7455 40.6096 58.1631 39.1128 54.3947C37.2567 49.72 39.2679 44.3191 41.8688 42.3233C44.4703 40.3268 54.0797 46.7993 54.0797 46.7993L53.5127 53.2811C53.5127 53.2811 53.6784 56.4128 48.1865 58.0033Z" fill="#454F56"/>
<path id="Vector_133" d="M54.7488 22.3005C54.0141 20.9056 52.8354 20.1523 52.8354 20.1523L47.5725 19.6587C47.5725 19.6587 46.4025 19.6488 45.1054 20.681C42.2989 22.915 41.4417 30.3105 41.0344 35.0124C40.687 39.0288 39.6841 42.5332 40.299 44.0558C47.4347 47.9994 53.2394 47.1011 54.0793 46.7994C55.3744 46.3343 54.0547 38.6741 55.3531 33.3812C56.6775 27.9809 55.6419 23.9959 54.7488 22.3005Z" fill="#E9E9E9"/>
<g id="Group_52">
<g id="Group_53">
<path id="Vector_134" d="M50.3752 58.7544C50.3752 58.7544 50.4497 58.9302 50.5901 59.2591C50.7459 59.6181 50.9222 60.0864 51.1625 60.6997C51.3795 61.308 51.6623 62.0459 51.9365 62.8936C52.23 63.7394 52.5202 64.6982 52.8376 65.7433C53.1404 66.7909 53.4625 67.9255 53.7667 69.1311C54.0648 70.3378 54.3843 71.6082 54.6505 72.9322C54.9493 74.2506 55.1922 75.6227 55.4405 77.0146C55.7073 78.404 55.8704 79.8298 56.0913 81.2457C56.2783 82.666 56.4148 84.0911 56.5758 85.4892C56.681 86.8915 56.7848 88.2711 56.8846 89.6062C56.9538 90.9419 56.9838 92.235 57.031 93.4585C57.0969 94.6813 57.0404 95.8412 57.051 96.9079C57.0357 97.9759 57.065 98.9531 57.0058 99.82C56.9652 100.686 56.9299 101.441 56.9013 102.063C56.8434 103.305 56.8101 104.014 56.8101 104.014L54.0988 103.941C54.0988 103.941 54.0795 103.245 54.0462 102.027C54.0296 101.419 54.0096 100.68 53.9863 99.8323C53.9823 98.9852 53.8818 98.0314 53.8199 96.9912C53.7327 95.9516 53.7054 94.8238 53.5524 93.6374C53.4173 92.451 53.2962 91.1985 53.1338 89.9085C52.9408 88.6221 52.7418 87.2926 52.5395 85.942C52.2826 84.5995 52.0503 83.233 51.7688 81.8763C51.454 80.5245 51.1978 79.1641 50.8411 77.8456C50.5036 76.5235 50.1749 75.2242 49.7955 73.9822C49.4474 72.7323 49.0528 71.5422 48.6848 70.4125C48.3107 69.2853 47.9254 68.2303 47.568 67.2611C47.1953 66.2967 46.8566 65.4126 46.5258 64.6451C46.211 63.8684 45.9029 63.2156 45.6633 62.6696C45.4104 62.1409 45.2101 61.7084 45.081 61.4635C44.9392 61.1877 44.864 61.0409 44.864 61.0409L50.3752 58.7544Z" fill="#F9BB8D"/>
</g>
</g>
<path id="Vector_135" d="M56.9905 103.361C57.3033 103.949 60.5337 104.994 63.2524 105.394C64.7125 105.609 64.9169 107.889 62.7539 108.224C60.4173 108.585 56.3097 108.487 53.8619 108.068C52.642 107.86 52.8104 104.517 54.0895 103.118L56.9905 103.361Z" fill="#443836"/>
<path id="Vector_136" d="M45.9597 64.5418L39.6619 55.4102L50.4726 54.3237L52.1736 61.9191L45.9597 64.5418Z" fill="#454F56"/>
<path id="Vector_137" d="M72.6319 43.0964C71.7035 44.2927 70.6293 42.6362 69.3974 42.6454C67.7982 42.6571 67.3004 44.3309 66.1364 42.5806C65.8376 41.1345 67.6578 40.3071 68.863 40.1961C70.6513 40.0313 73.1164 42.4696 72.6319 43.0964Z" fill="#F9BB8D"/>
<g id="Group_54">
<g id="Group_55">
<path id="Vector_138" d="M48.3102 27.0454C48.3102 27.0454 48.3155 27.1343 48.3249 27.3002C48.3388 27.4804 48.3635 27.7549 48.4094 28.1072C48.5019 28.8112 48.6743 29.831 49.017 31.0143C49.3597 32.1958 49.8762 33.5457 50.6635 34.8376C51.4468 36.1296 52.5176 37.3499 53.8553 38.2278L53.9172 38.2698L53.9478 38.2914L53.9631 38.3019L53.9711 38.3068C53.9525 38.2963 54.0237 38.3377 53.9312 38.2852L54.0829 38.3747C54.1768 38.4284 54.3006 38.5073 54.3698 38.54C54.5129 38.6122 54.6533 38.6906 54.8496 38.7732C55.2103 38.938 55.607 39.0805 56.009 39.2113C56.8189 39.4698 57.6681 39.6721 58.5047 39.8375C60.1824 40.1663 61.8103 40.3527 63.2079 40.4779C64.6075 40.6013 65.7834 40.6593 66.6047 40.6908C67.4186 40.7117 67.8832 40.7241 67.8832 40.7241L67.9424 42.7533C67.9424 42.7533 67.4499 42.7705 66.5894 42.8001C65.7355 42.8193 64.519 42.8328 63.0528 42.7921C61.586 42.7496 59.8716 42.6601 58.0135 42.4127C57.0844 42.2868 56.1188 42.1209 55.1258 41.8698C54.6287 41.7408 54.1255 41.5958 53.6144 41.4021C53.3695 41.3164 53.0853 41.1923 52.8025 41.0622C52.6574 40.9968 52.5815 40.9523 52.4677 40.8956L52.3107 40.816L52.0917 40.6852C50.2282 39.5981 48.7461 38.06 47.6846 36.5071C46.6145 34.9481 45.9177 33.3748 45.4352 32.0107C44.9547 30.6435 44.6871 29.4762 44.5301 28.6458C44.4515 28.2306 44.4016 27.8987 44.3703 27.6648C44.3411 27.4168 44.3264 27.2842 44.3264 27.2842L48.3102 27.0454Z" fill="#F9BB8D"/>
</g>
</g>
<path id="Vector_139" d="M49.8221 30.7647C49.8221 30.7647 49.8261 25.0417 49.6211 23.8806C49.0967 20.9069 46.4599 20.6946 45.5628 20.8988C44.2197 21.2042 42.932 23.4666 44.1519 27.4214C44.4999 28.5522 45.0929 31.7271 45.0929 31.7271L49.8221 30.7647Z" fill="#C6C6C6"/>
<path id="Vector_140" d="M61.4922 6.31914C61.654 7.69559 61.4769 12.9052 60.9012 15.1374C60.5432 16.5262 59.31 18.9996 56.6625 19.4012C54.9069 19.6677 53.3669 18.7515 53.3669 18.7515L52.8358 20.1527C52.8358 20.1527 54.0078 22.0153 51.6385 22.0979C49.2693 22.1806 47.5729 19.6585 47.5729 19.6585C47.5729 19.6585 48.2085 19.6554 48.7522 19.6844C48.9545 19.3407 49.218 18.4782 49.3598 17.6009C45.7267 15.9246 47.5083 9.2275 47.5083 9.2275C47.5083 9.2275 51.9181 5.58373 55.3974 4.70702C58.8754 3.83094 61.4224 5.72069 61.4922 6.31914Z" fill="#F9BB8D"/>
<path id="Vector_141" d="M49.2316 18.098C49.559 17.2169 49.9769 16.2816 49.6608 14.9465C49.3121 14.9181 48.3651 14.4375 48.039 13.5935C47.5917 12.4367 48.3311 10.402 49.2648 10.3995C51.5296 10.3983 51.2454 13.198 51.2454 13.198C51.2454 13.198 52.85 12.8883 51.3526 9.14029C50.9446 8.11984 51.2547 6.48242 53.3698 6.0271C54.3334 5.8198 55.6711 6.96365 57.486 7.04447C59.0573 7.11419 60.031 6.23193 60.6299 6.6052C61.4033 7.08828 61.5497 8.22657 61.5497 8.22657C61.5497 8.22657 63.5542 6.95255 63.5542 4.47915C63.5542 2.00513 57.0514 0.615734 53.405 0.684833C48.5514 0.776144 45.6012 3.28162 44.9057 7.49424C44.0319 11.0782 47.9944 17.6044 49.2316 18.098Z" fill="#683C11"/>
<path id="Vector_142" d="M59.7562 9.62292C60.262 9.41449 60.9295 9.69811 61.1698 9.8986C61.3681 10.0642 61.4633 9.92183 61.3122 9.77451C60.9022 9.37292 60.2207 9.11742 59.8201 9.14187C59.5466 9.15838 59.5399 9.71217 59.7562 9.62292Z" fill="#683C11"/>
<path id="Vector_143" d="M59.5293 15.3302C59.3862 16.3217 58.7167 17.0558 58.0345 16.9713C57.353 16.8862 56.9151 16.0138 57.0595 15.0229L59.5293 15.3302Z" fill="white"/>
<path id="Vector_144" d="M59.3345 13.1148C59.2253 13.4986 58.2976 13.5424 58.2976 13.5424C58.2976 13.5424 59.5987 13.7916 59.7391 13.1716C59.8682 12.6015 58.9152 12.351 58.9152 12.351C58.9152 12.351 59.4762 12.6169 59.3345 13.1148Z" fill="#D99A71"/>
<path id="Vector_145" d="M60.8748 11.0567C60.8848 11.303 60.6758 11.5096 60.4083 11.5188C60.1407 11.528 59.9151 11.336 59.9051 11.0903C59.8951 10.844 60.1041 10.6374 60.3723 10.6276C60.6392 10.619 60.8648 10.811 60.8748 11.0567Z" fill="#683C11"/>
<path id="Vector_146" d="M56.3506 9.74612C55.8295 9.57152 55.1866 9.90344 54.9643 10.1218C54.78 10.3026 54.6735 10.1657 54.8119 10.0071C55.1879 9.57399 55.8461 9.26982 56.2481 9.26612C56.5216 9.26365 56.5735 9.82077 56.3506 9.74612Z" fill="#683C11"/>
<path id="Vector_147" d="M55.3526 11.2499C55.3626 11.4962 55.5882 11.6875 55.8558 11.6784C56.124 11.6692 56.3329 11.462 56.323 11.2163C56.313 10.9706 56.0874 10.7786 55.8198 10.7878C55.5516 10.797 55.3427 11.0036 55.3526 11.2499Z" fill="#683C11"/>
<path id="Vector_148" d="M57.4847 13.021C57.4987 13.3628 56.8298 13.6639 55.99 13.6929C55.1507 13.7225 54.4593 13.4689 54.4453 13.1271C54.4313 12.7853 55.1002 12.4842 55.94 12.4552C56.7793 12.4256 57.4707 12.6792 57.4847 13.021Z" fill="#E1B297"/>
<path id="Vector_149" d="M61.1964 13.5068C60.3572 13.5364 59.7595 13.2835 59.7455 12.9417C59.7316 12.5999 60.4963 12.2957 61.3355 12.2661L61.1964 13.5068Z" fill="#E1B297"/>
</g>
</g>
</g>
</svg>
