<svg width="210" height="223" viewBox="0 0 210 223" fill="none" xmlns="http://www.w3.org/2000/svg">
<g id="Group" opacity="0.15">
<path id="Vector" d="M85.2984 23.6513L70.1461 35.9755L85.096 41.2997L100.262 29.9188L85.2984 23.6513Z" fill="#E0E0E0"/>
<path id="Vector_2" d="M18.1349 94.5197C18.1137 94.5869 21.2991 100.388 25.2099 107.42C31.3601 118.478 32.4193 120.251 33.0623 120.471C33.9397 120.772 48.6047 122.873 48.9125 122.742C49.0286 122.691 46.0711 116.853 42.3487 109.768C38.6263 102.683 35.443 96.7417 35.2711 96.5657C34.9751 96.2625 18.2186 94.2618 18.1349 94.5197Z" fill="#E0E0E0"/>
<path id="Vector_3" d="M37.9175 96.5914L38.3435 97.6109C38.577 98.1689 41.7215 104.165 45.3338 110.939L51.9018 123.257L61.1578 124.565C66.2488 125.285 70.4219 125.848 70.4316 125.817C70.4414 125.787 67.4708 119.687 63.8254 112.258L57.1962 98.7459L47.5564 97.669L37.9166 96.5921L37.9175 96.5914Z" fill="#E0E0E0"/>
<path id="Vector_4" d="M134.767 57.4182C133.035 58.5407 109.621 77.9019 109.419 78.3969C109.359 78.5469 111.439 83.2048 114.051 88.7515C116.663 94.2982 119.55 100.512 120.469 102.558C121.386 104.606 122.255 106.215 122.39 106.14C122.529 106.069 128.004 101.28 134.559 95.5063C141.114 89.7324 146.504 84.9167 146.541 84.8039C146.655 84.4493 135.177 57.4662 134.868 57.3661C134.85 57.3601 134.818 57.3723 134.767 57.4176L134.767 57.4182Z" fill="#E0E0E0"/>
<path id="Vector_5" d="M59.5776 99.0322L66.3135 112.478C71.3695 122.576 73.1867 125.981 73.6087 126.153C74.2914 126.431 93.2739 129.173 93.6009 129.04C93.7276 128.985 91.3311 124.047 88.2757 118.059C85.2203 112.071 82.1474 105.832 81.4438 104.195L80.1686 101.217L79.2305 101.323C78.7175 101.378 74.5566 100.935 69.9868 100.335C65.4171 99.7352 61.212 99.1931 60.6344 99.1348L59.5783 99.0321L59.5776 99.0322Z" fill="#E0E0E0"/>
<path id="Vector_6" d="M107.192 80.3041C105.809 80.9955 83.0715 100.266 82.9422 100.85C82.834 101.34 84.4077 104.636 89.7259 115.054C93.5355 122.517 96.7541 128.575 96.8753 128.511C96.9976 128.449 102.296 123.826 108.657 118.239C115.017 112.651 120.272 107.908 120.329 107.706C120.385 107.505 117.824 101.864 114.642 95.1714C111.46 88.4782 108.603 82.3334 108.29 81.5172C107.802 80.2431 107.648 80.0747 107.192 80.304L107.192 80.3041Z" fill="#E0E0E0"/>
<path id="Vector_7" d="M34.2906 123.264C34.1882 123.58 46.2738 145.501 47.1982 146.675C47.7505 147.377 49.319 147.878 55.9457 149.456L64.0215 151.378L61.9935 147.221C60.8769 144.936 57.7983 139.069 55.1498 134.18L50.3299 125.286L42.3488 124.144C37.9597 123.517 34.3362 123.124 34.2906 123.264Z" fill="#E0E0E0"/>
<path id="Vector_8" d="M53.2679 125.812C53.2605 125.888 56.33 131.811 60.0982 138.965C65.3808 149.012 67.0657 152.016 67.5102 152.159C67.8269 152.262 72.0497 153.292 76.8907 154.442L85.6932 156.53L82.6084 150.03C80.9122 146.456 77.7937 140.1 75.6814 135.911L71.8442 128.302L62.5604 126.985C57.4551 126.262 53.2748 125.736 53.2679 125.812Z" fill="#E0E0E0"/>
<path id="Vector_9" d="M169.381 67.9768C169.034 68.1545 149.456 85.2477 149.381 85.4439C149.341 85.5498 161.403 114.294 161.891 115.255C162.052 115.569 162.302 115.666 162.474 115.482C162.64 115.305 166.696 111.594 171.488 107.24C176.28 102.887 180.316 99.1287 180.459 98.892C180.635 98.6015 179.047 93.8097 175.568 84.1659C172.732 76.3059 170.253 69.4132 170.067 68.8408C169.845 68.1588 169.613 67.8616 169.381 67.9772L169.381 67.9768Z" fill="#E0E0E0"/>
<path id="Vector_10" d="M147.503 87.0596L135.492 97.6133C128.885 103.419 123.444 108.259 123.409 108.367C123.338 108.585 134.094 131.697 136.159 135.768L137.447 138.32L148.79 127.967C155.029 122.271 160.173 117.491 160.219 117.348C160.301 117.097 149.141 90.3324 148.045 88.1485L147.503 87.0596Z" fill="#E0E0E0"/>
<path id="Vector_11" d="M74.4837 128.742C74.409 128.779 77.6363 135.24 81.6591 143.095L88.9736 157.378L99.4478 159.838L109.922 162.298L108.155 158.381C107.187 156.226 103.778 149.302 100.581 142.993L94.7732 131.524L84.6986 130.097C79.1557 129.315 74.559 128.703 74.4846 128.741L74.4837 128.742Z" fill="#E0E0E0"/>
<path id="Vector_12" d="M121.507 110.154C121.326 110.096 97.926 130.477 97.8809 130.733C97.8729 130.775 101.206 137.579 105.281 145.847C112.59 160.678 112.688 160.878 113.183 160.437C113.459 160.19 118.616 155.485 124.642 149.99L135.598 139.998L134.182 136.766C131.709 131.158 121.739 110.229 121.507 110.154Z" fill="#E0E0E0"/>
<path id="Vector_13" d="M49.3315 150.567C49.3189 150.572 49.3258 150.586 49.3291 150.593C49.403 150.838 52.071 155.722 55.2623 161.439L61.0659 171.825L62.2222 172.262L70.7173 175.44L78.0652 178.177L75.3034 172.538C73.7833 169.434 70.9529 163.987 69.0024 160.445L65.4579 154.005L57.3309 152.074C52.7443 150.986 49.4586 150.371 49.3281 150.57L49.3315 150.567Z" fill="#E0E0E0"/>
<path id="Vector_14" d="M68.7476 154.786L71.4952 160.396C73.0079 163.486 75.8998 169.054 77.9332 172.758L81.6289 179.495L91.1408 183.041L100.662 186.583L98.8669 182.609C97.8805 180.423 94.8652 174.269 92.1619 168.926L87.2471 159.206L77.9977 156.996L68.7482 154.786L68.7476 154.786Z" fill="#E0E0E0"/>
<path id="Vector_15" d="M181.201 101.714C180.288 102.263 177.978 104.318 172.249 109.551C167.21 114.155 163.078 117.951 163.07 117.994C163.061 118.037 165.214 123.187 167.86 129.435C170.505 135.683 172.984 141.625 173.375 142.64C174.04 144.364 174.12 144.458 174.539 143.983C174.786 143.704 178.439 139.694 182.655 135.08C186.871 130.465 190.38 126.512 190.455 126.29C190.597 125.87 182.276 102.362 181.72 101.612C181.654 101.523 181.505 101.531 181.201 101.714Z" fill="#E0E0E0"/>
<path id="Vector_16" d="M161.225 119.775C160.985 119.769 138.539 140.235 138.46 140.532C138.429 140.644 140.943 146.077 144.041 152.608C147.139 159.139 150.09 165.487 150.6 166.716C151.111 167.944 151.603 168.911 151.697 168.863C151.79 168.816 156.5 163.7 162.162 157.5L172.457 146.235L172.137 145.22C171.518 143.305 161.429 119.78 161.225 119.775Z" fill="#E0E0E0"/>
<path id="Vector_17" d="M90.2067 159.981C90.0393 159.999 93.0972 166.284 97.0071 173.943L104.118 187.874L115.309 192.057C121.464 194.359 126.584 196.208 126.684 196.169C126.786 196.134 124.292 190.835 121.143 184.399C117.994 177.964 114.527 170.954 113.437 168.823L111.445 164.95L100.975 162.453C95.216 161.08 90.3713 159.965 90.204 159.982L90.2067 159.981Z" fill="#E0E0E0"/>
<path id="Vector_18" d="M136.658 142.258C136.509 142.21 129.739 148.319 114.228 162.506C113.811 162.887 114.284 163.897 121.567 178.164C125.867 186.587 129.444 193.303 129.557 193.176L139.98 181.776L150.197 170.61L149.292 168.808C148.789 167.822 145.783 161.461 142.611 154.669C139.439 147.877 136.762 142.29 136.66 142.257L136.658 142.258Z" fill="#E0E0E0"/>
<path id="Vector_19" d="M40.161 75.8384L30.4827 82.9608C25.1602 86.8811 20.7688 90.1934 20.7274 90.321C20.6859 90.4487 20.9113 90.5722 21.2269 90.5912C21.5426 90.6101 24.8534 91.0022 28.5784 91.4594C32.3033 91.9165 35.5517 92.1908 35.8016 92.0778C36.0515 91.9647 40.438 88.5416 45.5456 84.4668C50.6532 80.392 54.8908 76.9288 54.9542 76.7702C55.0176 76.6116 51.7128 76.3296 47.6147 76.1527L40.161 75.8384Z" fill="#E0E0E0"/>
<path id="Vector_20" d="M83.8221 77.7305L73.697 86.4929C68.1243 91.314 63.604 95.3361 63.657 95.422C63.8002 95.6546 80.5776 97.6238 80.9229 97.4488C81.086 97.3663 86.2322 93.1432 92.3535 88.0668C98.4748 82.9904 103.5 78.7754 103.524 78.7007C103.548 78.626 99.1264 78.3801 93.698 78.1505L83.8221 77.7305Z" fill="#E0E0E0"/>
<path id="Vector_21" d="M58.2548 77.1032C57.9551 77.3548 53.5868 80.8466 48.5494 84.8581C43.5121 88.8696 39.2748 92.2586 39.1394 92.3919C39.0043 92.5258 43.7167 93.2012 49.6006 93.8898L60.2967 95.1394L68.0774 88.4138L78.1378 79.7309C79.3836 78.6531 80.2458 77.7258 80.0588 77.6651C79.8718 77.6044 75.011 77.3485 69.2565 77.1C62.1182 76.7916 58.6263 76.7906 58.2548 77.1032Z" fill="#E0E0E0"/>
<path id="Vector_22" d="M80.8605 53.2432L64.2494 71.642L86.2773 69.7897L102.364 48.8504L80.8612 53.2433L80.8605 53.2432Z" fill="#E0E0E0"/>
<path id="Vector_23" d="M105.315 31.3581L89.5895 44.1224L108.276 49.0179L125.599 33.9438L105.315 31.3581Z" fill="#E0E0E0"/>
<path id="Vector_24" d="M62.6576 46.493L34.6988 61.746L51.0867 67.5095L77.5064 51.0868L62.6576 46.493Z" fill="#E0E0E0"/>
<path id="Vector_25" d="M128.163 29.3866L113.541 46.9603L134.233 44.6456L151.526 25.072L128.163 29.3863L128.163 29.3866Z" fill="#E0E0E0"/>
<path id="Vector_26" d="M110.602 54.6349L98.6083 64.9698C92.0118 70.6549 86.6554 75.3859 86.7037 75.4809C86.752 75.5759 91.197 75.8329 96.5809 76.0632L106.364 76.4836L118.943 66.0832C125.856 60.3608 131.536 55.5931 131.567 55.4966C131.599 55.3993 126.895 55.1655 121.114 54.9748L110.602 54.6349L110.602 54.6349Z" fill="#E0E0E0"/>
<path id="Vector_27" d="M152.538 27.6294L135.587 47.1868L147.118 73.8302L162.265 54.7851L152.538 27.6294Z" fill="#E0E0E0"/>
</g>
</svg>
