<svg width="32" height="32" viewBox="0 0 32 32" fill="none" xmlns="http://www.w3.org/2000/svg">
<g id="Idea" clip-path="url(#clip0_577_1824)">
<path id="Vector" d="M21.1 15.01L20.1765 14.8245C20.164 14.7945 20.1515 14.7635 20.138 14.733L20.6585 13.95C20.7225 13.8539 20.7513 13.7385 20.7399 13.6236C20.7285 13.5087 20.6776 13.4012 20.596 13.3195L19.182 11.9055C19.1003 11.8237 18.9927 11.7728 18.8777 11.7614C18.7626 11.75 18.6472 11.7789 18.551 11.843L17.767 12.3655C17.7365 12.352 17.706 12.3395 17.675 12.3265L17.49 11.4C17.4669 11.2871 17.4056 11.1856 17.3163 11.1127C17.227 11.0398 17.1153 11 17 11H15C14.8847 11 14.773 11.0398 14.6837 11.1127C14.5944 11.1856 14.5331 11.2871 14.51 11.4L14.325 12.323C14.294 12.336 14.2635 12.3485 14.233 12.362L13.45 11.8415C13.3538 11.7774 13.2384 11.7485 13.1233 11.7599C13.0083 11.7713 12.9007 11.8222 12.819 11.904L11.405 13.318C11.3234 13.3997 11.2725 13.5072 11.2611 13.6221C11.2497 13.737 11.2785 13.8524 11.3425 13.9485L11.865 14.733C11.8515 14.7635 11.839 14.7945 11.8265 14.8245L10.9 15.01C10.7871 15.0331 10.6856 15.0944 10.6127 15.1837C10.5398 15.273 10.5 15.3847 10.5 15.5V17.5C10.5 17.6153 10.5398 17.727 10.6127 17.8163C10.6856 17.9056 10.7871 17.9669 10.9 17.99L11.8235 18.1755C11.836 18.2055 11.8485 18.2365 11.862 18.267L11.3415 19.05C11.2775 19.1461 11.2487 19.2615 11.2601 19.3764C11.2715 19.4913 11.3224 19.5988 11.404 19.6805L12.818 21.0945C12.8997 21.1763 13.0073 21.2272 13.1223 21.2386C13.2374 21.25 13.3528 21.2211 13.449 21.157L14.233 20.6345C14.2635 20.648 14.294 20.6605 14.325 20.6735L14.51 21.5965C14.5323 21.7101 14.5934 21.8124 14.6828 21.886C14.7721 21.9596 14.8842 21.9999 15 22H17C17.1153 22 17.227 21.9602 17.3163 21.8873C17.4056 21.8144 17.4669 21.7129 17.49 21.6L17.675 20.677C17.706 20.664 17.7365 20.6515 17.767 20.638L18.55 21.1585C18.6462 21.2226 18.7616 21.2515 18.8767 21.2401C18.9917 21.2287 19.0993 21.1778 19.181 21.096L20.595 19.682C20.6766 19.6003 20.7275 19.4928 20.7389 19.3779C20.7503 19.263 20.7215 19.1476 20.6575 19.0515L20.135 18.267C20.1485 18.2365 20.161 18.2055 20.1735 18.1755L21.1 17.99C21.2129 17.9669 21.3144 17.9056 21.3873 17.8163C21.4602 17.727 21.5 17.6153 21.5 17.5V15.5C21.5 15.3847 21.4602 15.273 21.3873 15.1837C21.3144 15.0944 21.2129 15.0331 21.1 15.01ZM20.5 17.0905L19.7035 17.2495C19.6166 17.267 19.5358 17.3072 19.4696 17.3662C19.4033 17.4252 19.3539 17.5007 19.3265 17.585C19.2701 17.7568 19.2004 17.924 19.118 18.085C19.0777 18.1641 19.0591 18.2526 19.0643 18.3413C19.0695 18.4299 19.0982 18.5156 19.1475 18.5895L19.5975 19.2665L18.7645 20.1L18.0875 19.65C18.0137 19.6007 17.9281 19.572 17.8396 19.5667C17.751 19.5614 17.6626 19.5798 17.5835 19.62C17.4224 19.7022 17.2552 19.7719 17.0835 19.8285C16.9993 19.856 16.9238 19.9054 16.865 19.9717C16.8061 20.0379 16.7659 20.1186 16.7485 20.2055L16.59 21H15.41L15.25 20.2035C15.2326 20.1166 15.1924 20.0359 15.1335 19.9697C15.0747 19.9034 14.9992 19.854 14.915 19.8265C14.7433 19.7699 14.5761 19.7002 14.415 19.618C14.3359 19.5778 14.2475 19.5594 14.1589 19.5647C14.0704 19.57 13.9848 19.5987 13.911 19.648L13.234 20.098L12.4 19.2645L12.85 18.5875C12.8993 18.5136 12.928 18.4279 12.9332 18.3393C12.9384 18.2506 12.9198 18.1621 12.8795 18.083C12.7971 17.922 12.7274 17.7548 12.671 17.583C12.6436 17.4987 12.5942 17.4232 12.5279 17.3642C12.4617 17.3052 12.3809 17.265 12.294 17.2475L11.5 17.0905V15.9095L12.2965 15.7505C12.3834 15.733 12.4642 15.6928 12.5304 15.6338C12.5967 15.5748 12.6461 15.4993 12.6735 15.415C12.7299 15.2432 12.7996 15.076 12.882 14.915C12.9223 14.8359 12.9409 14.7474 12.9357 14.6587C12.9305 14.5701 12.9018 14.4844 12.8525 14.4105L12.4025 13.7335L13.2375 12.899L13.9145 13.349C13.9883 13.3983 14.0739 13.427 14.1624 13.4323C14.251 13.4376 14.3394 13.4192 14.4185 13.379C14.5796 13.2968 14.7468 13.2271 14.9185 13.1705C15.0027 13.143 15.0782 13.0936 15.137 13.0273C15.1959 12.9611 15.2361 12.8804 15.2535 12.7935L15.41 12H16.59L16.7495 12.7965C16.7669 12.8834 16.8071 12.9641 16.866 13.0303C16.9248 13.0966 17.0003 13.146 17.0845 13.1735C17.2562 13.2301 17.4234 13.2998 17.5845 13.382C17.6636 13.4222 17.752 13.4406 17.8406 13.4353C17.9291 13.43 18.0147 13.4013 18.0885 13.352L18.7655 12.902L19.6005 13.7365L19.1505 14.4135C19.1012 14.4874 19.0725 14.5731 19.0673 14.6617C19.0621 14.7504 19.0807 14.8389 19.121 14.918C19.2034 15.079 19.2731 15.2462 19.3295 15.418C19.3569 15.5023 19.4063 15.5778 19.4726 15.6368C19.5388 15.6958 19.6196 15.736 19.7065 15.7535L20.5 15.9095V17.0905Z" fill="white"/>
<path id="Vector_2" d="M16 13.5C15.4067 13.5 14.8266 13.6759 14.3333 14.0056C13.8399 14.3352 13.4554 14.8038 13.2284 15.3519C13.0013 15.9001 12.9419 16.5033 13.0576 17.0853C13.1734 17.6672 13.4591 18.2018 13.8787 18.6213C14.2982 19.0409 14.8328 19.3266 15.4147 19.4424C15.9967 19.5581 16.5999 19.4987 17.1481 19.2716C17.6962 19.0446 18.1648 18.6601 18.4944 18.1667C18.8241 17.6734 19 17.0933 19 16.5C18.9992 15.7046 18.6829 14.942 18.1204 14.3796C17.558 13.8171 16.7954 13.5008 16 13.5ZM16 18.5C15.6044 18.5 15.2178 18.3827 14.8889 18.1629C14.56 17.9432 14.3036 17.6308 14.1522 17.2654C14.0009 16.8999 13.9613 16.4978 14.0384 16.1098C14.1156 15.7219 14.3061 15.3655 14.5858 15.0858C14.8655 14.8061 15.2219 14.6156 15.6098 14.5384C15.9978 14.4613 16.3999 14.5009 16.7654 14.6522C17.1308 14.8036 17.4432 15.06 17.6629 15.3889C17.8827 15.7178 18 16.1044 18 16.5C18 17.0304 17.7893 17.5391 17.4142 17.9142C17.0391 18.2893 16.5304 18.5 16 18.5Z" fill="white"/>
<path id="Vector_3" d="M30.0004 15.0004C29.6912 15.0016 29.39 15.0984 29.138 15.2774C28.886 15.4564 28.6954 15.7089 28.5924 16.0004H23.4739C23.4531 15.6645 23.41 15.3305 23.3449 15.0004H26.5004C26.633 15.0003 26.7601 14.9476 26.8539 14.8539L27.8579 13.8504C28.058 13.9482 28.2776 13.9995 28.5004 14.0004C28.797 14.0004 29.087 13.9124 29.3337 13.7476C29.5804 13.5827 29.7726 13.3485 29.8862 13.0744C29.9997 12.8003 30.0294 12.4987 29.9715 12.2077C29.9137 11.9167 29.7708 11.6495 29.561 11.4397C29.3512 11.2299 29.084 11.0871 28.793 11.0292C28.502 10.9713 28.2004 11.001 27.9263 11.1145C27.6522 11.2281 27.418 11.4203 27.2532 11.667C27.0883 11.9137 27.0004 12.2037 27.0004 12.5004C27.0012 12.7231 27.0525 12.9428 27.1504 13.1429L26.2934 14.0004H23.0629C22.9403 13.6568 22.7929 13.3225 22.6219 13.0004H25.0004C25.133 13.0004 25.2601 12.9477 25.3539 12.8539C25.4477 12.7601 25.5004 12.633 25.5004 12.5004V10.4084C25.8337 10.2909 26.1147 10.0593 26.2937 9.75459C26.4726 9.44983 26.5379 9.09157 26.478 8.74327C26.4182 8.39496 26.2369 8.07909 25.9665 7.8516C25.696 7.62411 25.3538 7.49968 25.0004 7.50035C25.001 7.14694 24.8766 6.8047 24.6491 6.53423C24.4216 6.26377 24.1057 6.08255 23.7574 6.02266C23.4091 5.96277 23.0509 6.02809 22.7461 6.20704C22.4414 6.38598 22.2098 6.66701 22.0924 7.00035H20.0004C19.8677 7.00035 19.7406 7.05303 19.6468 7.1468C19.553 7.24057 19.5004 7.36775 19.5004 7.50035V9.87135C19.1784 9.70005 18.8442 9.55298 18.5004 9.43135V6.20735L19.3579 5.35035C19.558 5.448 19.7776 5.49927 20.0004 5.50035C20.297 5.50035 20.587 5.41238 20.8337 5.24756C21.0804 5.08274 21.2726 4.84847 21.3862 4.57438C21.4997 4.30029 21.5294 3.99869 21.4715 3.70772C21.4137 3.41675 21.2708 3.14947 21.061 2.93969C20.8512 2.72992 20.584 2.58705 20.293 2.52918C20.002 2.4713 19.7004 2.501 19.4263 2.61454C19.1522 2.72807 18.918 2.92033 18.7532 3.167C18.5883 3.41367 18.5004 3.70368 18.5004 4.00035C18.5015 4.22322 18.5528 4.44298 18.6504 4.64335L17.6464 5.64685C17.5528 5.74068 17.5002 5.86783 17.5004 6.00035V9.15035C17.1702 9.08654 16.8361 9.04512 16.5004 9.02635V3.40835C16.834 3.29041 17.1151 3.05832 17.2942 2.75311C17.4732 2.44791 17.5386 2.08924 17.4788 1.74049C17.4189 1.39174 17.2377 1.07537 16.9672 0.847302C16.6966 0.619231 16.3542 0.494141 16.0004 0.494141C15.6465 0.494141 15.3041 0.619231 15.0335 0.847302C14.763 1.07537 14.5818 1.39174 14.522 1.74049C14.4621 2.08924 14.5275 2.44791 14.7065 2.75311C14.8856 3.05832 15.1667 3.29041 15.5004 3.40835V9.02635C15.3814 9.03435 15.2634 9.03435 15.1444 9.04785C14.9269 9.07185 14.7124 9.10685 14.5004 9.14785V6.00035C14.5003 5.86776 14.4476 5.7406 14.3539 5.64685L13.3504 4.64335C13.4479 4.44298 13.4992 4.22322 13.5004 4.00035C13.5004 3.70368 13.4124 3.41367 13.2476 3.167C13.0827 2.92033 12.8485 2.72807 12.5744 2.61454C12.3003 2.501 11.9987 2.4713 11.7077 2.52918C11.4167 2.58705 11.1495 2.72992 10.9397 2.93969C10.7299 3.14947 10.5871 3.41675 10.5292 3.70772C10.4713 3.99869 10.501 4.30029 10.6145 4.57438C10.7281 4.84847 10.9203 5.08274 11.167 5.24756C11.4137 5.41238 11.7037 5.50035 12.0004 5.50035C12.2231 5.49927 12.4427 5.448 12.6429 5.35035L13.5004 6.20735V9.43385C13.1566 9.55706 12.8223 9.70546 12.5004 9.87785V7.50035C12.5004 7.36775 12.4477 7.24057 12.3539 7.1468C12.2601 7.05303 12.133 7.00035 12.0004 7.00035H9.90835C9.79094 6.66701 9.55935 6.38598 9.25459 6.20704C8.94983 6.02809 8.59157 5.96277 8.24327 6.02266C7.89496 6.08255 7.57909 6.26377 7.3516 6.53423C7.12411 6.8047 6.99968 7.14694 7.00035 7.50035C6.64694 7.49968 6.3047 7.62411 6.03423 7.8516C5.76377 8.07909 5.58255 8.39496 5.52266 8.74327C5.46277 9.09157 5.52809 9.44983 5.70704 9.75459C5.88598 10.0593 6.16701 10.2909 6.50035 10.4084V12.5004C6.50035 12.633 6.55303 12.7601 6.6468 12.8539C6.74057 12.9477 6.86775 13.0004 7.00035 13.0004H9.37285C9.2014 13.3223 9.05416 13.6565 8.93235 14.0004H5.70735L4.85035 13.1429C4.94821 12.9428 4.99949 12.7231 5.00035 12.5004C5.00035 12.2037 4.91238 11.9137 4.74756 11.667C4.58274 11.4203 4.34847 11.2281 4.07438 11.1145C3.80029 11.001 3.49869 10.9713 3.20772 11.0292C2.91675 11.0871 2.64947 11.2299 2.43969 11.4397C2.22992 11.6495 2.08705 11.9167 2.02918 12.2077C1.9713 12.4987 2.001 12.8003 2.11453 13.0744C2.22807 13.3485 2.42033 13.5827 2.667 13.7476C2.91367 13.9124 3.20368 14.0004 3.50035 14.0004C3.7231 13.9995 3.94276 13.9482 4.14285 13.8504L5.14685 14.8544C5.24068 14.9479 5.36783 15.0005 5.50035 15.0004H8.65285C8.62185 15.1544 8.59085 15.3089 8.56985 15.4664C8.54585 15.6444 8.52885 15.8224 8.51985 16.0004H3.40835C3.29041 15.6667 3.05832 15.3856 2.75311 15.2065C2.44791 15.0275 2.08924 14.9621 1.74049 15.022C1.39174 15.0818 1.07537 15.263 0.847302 15.5335C0.619231 15.8041 0.494141 16.1465 0.494141 16.5004C0.494141 16.8542 0.619231 17.1966 0.847302 17.4672C1.07537 17.7377 1.39174 17.9189 1.74049 17.9788C2.08924 18.0386 2.44791 17.9732 2.75311 17.7942C3.05832 17.6151 3.29041 17.334 3.40835 17.0004H8.52035C8.54369 17.3364 8.58963 17.6705 8.65785 18.0004H5.50035C5.36776 18.0004 5.2406 18.0531 5.14685 18.1469L4.14285 19.1504C3.94276 19.0525 3.7231 19.0012 3.50035 19.0004C3.20368 19.0004 2.91367 19.0883 2.667 19.2532C2.42033 19.418 2.22807 19.6522 2.11453 19.9263C2.001 20.2004 1.9713 20.502 2.02918 20.793C2.08705 21.084 2.22992 21.3512 2.43969 21.561C2.64947 21.7708 2.91675 21.9137 3.20772 21.9715C3.49869 22.0294 3.80029 21.9997 4.07438 21.8862C4.34847 21.7726 4.58274 21.5804 4.74756 21.3337C4.91238 21.087 5.00035 20.797 5.00035 20.5004C4.99949 20.2776 4.94821 20.058 4.85035 19.8579L5.70735 19.0004H8.93735C9.05989 19.344 9.20728 19.6782 9.37835 20.0004H7.00035C6.86775 20.0004 6.74057 20.053 6.6468 20.1468C6.55303 20.2406 6.50035 20.3677 6.50035 20.5004V22.5924C6.16675 22.7103 5.88558 22.9424 5.70654 23.2476C5.5275 23.5528 5.46212 23.9115 5.52196 24.2602C5.58179 24.609 5.76299 24.9253 6.03352 25.1534C6.30406 25.3815 6.64651 25.5066 7.00035 25.5066C7.3542 25.5066 7.69665 25.3815 7.96718 25.1534C8.23772 24.9253 8.41892 24.609 8.47875 24.2602C8.53859 23.9115 8.47321 23.5528 8.29417 23.2476C8.11513 22.9424 7.83396 22.7103 7.50035 22.5924V21.0004H10.0124C10.4502 21.5855 10.9716 22.1032 11.5599 22.5369C11.9388 22.8236 12.2571 23.1827 12.4964 23.5932C12.7357 24.0038 12.8912 24.4578 12.9539 24.9289C12.6765 25.198 12.5143 25.5642 12.5012 25.9504C12.488 26.3366 12.625 26.7129 12.8834 27.0004C12.7163 27.1859 12.5985 27.4105 12.5407 27.6534C12.4829 27.8963 12.487 28.1498 12.5526 28.3908C12.6183 28.6317 12.7433 28.8523 12.9163 29.0323C13.0893 29.2124 13.3047 29.3462 13.5429 29.4214C13.6406 30.0025 13.9411 30.5302 14.391 30.9107C14.8409 31.2913 15.4111 31.5001 16.0004 31.5001C16.5896 31.5001 17.1598 31.2913 17.6097 30.9107C18.0597 30.5302 18.3601 30.0025 18.4579 29.4214C18.696 29.3462 18.9114 29.2124 19.0844 29.0323C19.2574 28.8523 19.3824 28.6317 19.4481 28.3908C19.5137 28.1498 19.5178 27.8963 19.46 27.6534C19.4022 27.4105 19.2844 27.1859 19.1174 27.0004C19.3758 26.7129 19.5127 26.3366 19.4995 25.9503C19.4863 25.564 19.3238 25.1979 19.0464 24.9289C19.108 24.4587 19.2625 24.0054 19.501 23.5956C19.7395 23.1857 20.0571 22.8273 20.4354 22.5414C21.0215 22.1058 21.5405 21.5866 21.9759 21.0004H24.5004V22.5924C24.1667 22.7103 23.8856 22.9424 23.7065 23.2476C23.5275 23.5528 23.4621 23.9115 23.522 24.2602C23.5818 24.609 23.763 24.9253 24.0335 25.1534C24.3041 25.3815 24.6465 25.5066 25.0004 25.5066C25.3542 25.5066 25.6966 25.3815 25.9672 25.1534C26.2377 24.9253 26.4189 24.609 26.4788 24.2602C26.5386 23.9115 26.4732 23.5528 26.2942 23.2476C26.1151 22.9424 25.834 22.7103 25.5004 22.5924V20.5004C25.5004 20.3677 25.4477 20.2406 25.3539 20.1468C25.2601 20.053 25.133 20.0004 25.0004 20.0004H22.6189C22.7906 19.6782 22.9386 19.344 23.0619 19.0004H26.2934L27.1504 19.8579C27.0525 20.058 27.0012 20.2776 27.0004 20.5004C27.0004 20.797 27.0883 21.087 27.2532 21.3337C27.418 21.5804 27.6522 21.7726 27.9263 21.8862C28.2004 21.9997 28.502 22.0294 28.793 21.9715C29.084 21.9137 29.3512 21.7708 29.561 21.561C29.7708 21.3512 29.9137 21.084 29.9715 20.793C30.0294 20.502 29.9997 20.2004 29.8862 19.9263C29.7726 19.6522 29.5804 19.418 29.3337 19.2532C29.087 19.0883 28.797 19.0004 28.5004 19.0004C28.2776 19.0012 28.058 19.0525 27.8579 19.1504L26.8539 18.1464C26.76 18.0528 26.6329 18.0002 26.5004 18.0004H23.3359C23.4033 17.6705 23.4483 17.3364 23.4704 17.0004H28.5924C28.6845 17.2589 28.8459 17.4872 29.059 17.6603C29.2721 17.8333 29.5286 17.9445 29.8006 17.9816C30.0726 18.0187 30.3495 17.9804 30.6012 17.8707C30.8528 17.7611 31.0695 17.5844 31.2275 17.3599C31.3855 17.1354 31.4788 16.8719 31.4972 16.598C31.5155 16.3241 31.4582 16.0504 31.3316 15.8069C31.2049 15.5633 31.0138 15.3593 30.779 15.2171C30.5442 15.0748 30.2749 14.9999 30.0004 15.0004ZM28.5004 12.0004C28.5992 12.0004 28.6959 12.0297 28.7781 12.0846C28.8604 12.1396 28.9244 12.2176 28.9623 12.309C29.0001 12.4004 29.01 12.5009 28.9907 12.5979C28.9715 12.6949 28.9238 12.784 28.8539 12.8539C28.784 12.9238 28.6949 12.9715 28.5979 12.9907C28.5009 13.01 28.4004 13.0001 28.309 12.9623C28.2176 12.9244 28.1396 12.8604 28.0846 12.7781C28.0297 12.6959 28.0004 12.5992 28.0004 12.5004C28.0004 12.3677 28.053 12.2406 28.1468 12.1468C28.2406 12.053 28.3677 12.0004 28.5004 12.0004ZM20.0004 3.50035C20.0992 3.50035 20.1959 3.52968 20.2781 3.58462C20.3604 3.63956 20.4244 3.71765 20.4623 3.80901C20.5001 3.90038 20.51 4.00091 20.4907 4.0979C20.4715 4.19489 20.4238 4.28398 20.3539 4.35391C20.284 4.42383 20.1949 4.47145 20.0979 4.49075C20.0009 4.51004 19.9004 4.50014 19.809 4.46229C19.7176 4.42445 19.6396 4.36036 19.5846 4.27814C19.5297 4.19591 19.5004 4.09924 19.5004 4.00035C19.5004 3.86775 19.553 3.74057 19.6468 3.6468C19.7406 3.55303 19.8677 3.50035 20.0004 3.50035ZM11.5004 4.00035C11.5004 3.90146 11.5297 3.80479 11.5846 3.72257C11.6396 3.64034 11.7176 3.57626 11.809 3.53841C11.9004 3.50057 12.0009 3.49067 12.0979 3.50996C12.1949 3.52925 12.284 3.57687 12.3539 3.6468C12.4238 3.71673 12.4715 3.80582 12.4907 3.90281C12.51 3.9998 12.5001 4.10033 12.4623 4.1917C12.4244 4.28306 12.3604 4.36115 12.2781 4.41609C12.1959 4.47103 12.0992 4.50035 12.0004 4.50035C11.8677 4.50035 11.7406 4.44768 11.6468 4.35391C11.553 4.26014 11.5004 4.13296 11.5004 4.00035ZM3.00035 12.5004C3.00035 12.4015 3.02968 12.3048 3.08462 12.2226C3.13956 12.1403 3.21765 12.0763 3.30901 12.0384C3.40038 12.0006 3.50091 11.9907 3.5979 12.01C3.69489 12.0293 3.78398 12.0769 3.85391 12.1468C3.92383 12.2167 3.97145 12.3058 3.99075 12.4028C4.01004 12.4998 4.00014 12.6003 3.96229 12.6917C3.92445 12.7831 3.86036 12.8611 3.77814 12.9161C3.69591 12.971 3.59924 13.0004 3.50035 13.0004C3.36775 13.0004 3.24057 12.9477 3.1468 12.8539C3.05303 12.7601 3.00035 12.633 3.00035 12.5004ZM3.50035 21.0004C3.40146 21.0004 3.30479 20.971 3.22257 20.9161C3.14034 20.8611 3.07626 20.7831 3.03841 20.6917C3.00057 20.6003 2.99067 20.4998 3.00996 20.4028C3.02925 20.3058 3.07687 20.2167 3.1468 20.1468C3.21673 20.0769 3.30582 20.0293 3.40281 20.01C3.4998 19.9907 3.60033 20.0006 3.6917 20.0384C3.78306 20.0763 3.86115 20.1403 3.91609 20.2226C3.97103 20.3048 4.00035 20.4015 4.00035 20.5004C4.00035 20.633 3.94768 20.7601 3.85391 20.8539C3.76014 20.9477 3.63296 21.0004 3.50035 21.0004ZM7.00035 24.5004C6.90146 24.5004 6.80479 24.471 6.72257 24.4161C6.64034 24.3611 6.57626 24.2831 6.53841 24.1917C6.50057 24.1003 6.49067 23.9998 6.50996 23.9028C6.52925 23.8058 6.57687 23.7167 6.6468 23.6468C6.71673 23.5769 6.80582 23.5293 6.90281 23.51C6.9998 23.4907 7.10033 23.5006 7.1917 23.5384C7.28306 23.5763 7.36115 23.6403 7.41609 23.7226C7.47103 23.8048 7.50035 23.9015 7.50035 24.0004C7.50035 24.133 7.44768 24.2601 7.35391 24.3539C7.26014 24.4477 7.13296 24.5004 7.00035 24.5004ZM25.0004 24.5004C24.9015 24.5004 24.8048 24.471 24.7226 24.4161C24.6403 24.3611 24.5763 24.2831 24.5384 24.1917C24.5006 24.1003 24.4907 23.9998 24.51 23.9028C24.5293 23.8058 24.5769 23.7167 24.6468 23.6468C24.7167 23.5769 24.8058 23.5293 24.9028 23.51C24.9998 23.4907 25.1003 23.5006 25.1917 23.5384C25.2831 23.5763 25.3611 23.6403 25.4161 23.7226C25.471 23.8048 25.5004 23.9015 25.5004 24.0004C25.5004 24.133 25.4477 24.2601 25.3539 24.3539C25.2601 24.4477 25.133 24.5004 25.0004 24.5004ZM29.0004 20.5004C29.0004 20.5992 28.971 20.6959 28.9161 20.7781C28.8611 20.8604 28.7831 20.9244 28.6917 20.9623C28.6003 21.0001 28.4998 21.01 28.4028 20.9907C28.3058 20.9715 28.2167 20.9238 28.1468 20.8539C28.0769 20.784 28.0293 20.6949 28.01 20.5979C27.9907 20.5009 28.0006 20.4004 28.0384 20.309C28.0763 20.2176 28.1403 20.1396 28.2226 20.0846C28.3048 20.0297 28.4015 20.0004 28.5004 20.0004C28.633 20.0004 28.7601 20.053 28.8539 20.1468C28.9477 20.2406 29.0004 20.3677 29.0004 20.5004ZM25.5004 9.00035C25.5004 9.09924 25.471 9.19591 25.4161 9.27814C25.3611 9.36036 25.2831 9.42445 25.1917 9.46229C25.1003 9.50014 24.9998 9.51004 24.9028 9.49075C24.8058 9.47145 24.7167 9.42383 24.6468 9.35391C24.5769 9.28398 24.5293 9.19489 24.51 9.0979C24.4907 9.00091 24.5006 8.90038 24.5384 8.80901C24.5763 8.71765 24.6403 8.63956 24.7226 8.58462C24.8048 8.52968 24.9015 8.50035 25.0004 8.50035C25.133 8.50035 25.2601 8.55303 25.3539 8.6468C25.4477 8.74057 25.5004 8.86775 25.5004 9.00035ZM23.5004 7.00035C23.5992 7.00035 23.6959 7.02968 23.7781 7.08462C23.8604 7.13956 23.9244 7.21765 23.9623 7.30901C24.0001 7.40038 24.01 7.50091 23.9907 7.5979C23.9715 7.69489 23.9238 7.78398 23.8539 7.85391C23.784 7.92383 23.6949 7.97145 23.5979 7.99075C23.5009 8.01004 23.4004 8.00014 23.309 7.96229C23.2176 7.92445 23.1396 7.86036 23.0846 7.77814C23.0297 7.69592 23.0004 7.59925 23.0004 7.50035C23.0004 7.36775 23.053 7.24057 23.1468 7.1468C23.2406 7.05303 23.3677 7.00035 23.5004 7.00035ZM20.5004 8.00035H22.0924C22.1954 8.29181 22.386 8.54431 22.638 8.72331C22.89 8.90231 23.1912 8.99907 23.5004 9.00035C23.5016 9.30948 23.5984 9.61067 23.7774 9.8627C23.9564 10.1147 24.2089 10.3053 24.5004 10.4084V12.0004H21.9934C21.699 11.6052 21.3664 11.2401 21.0004 10.9104C20.8394 10.7664 20.6699 10.6359 20.5004 10.5074V8.00035ZM16.0004 1.50035C16.0992 1.50035 16.1959 1.52968 16.2781 1.58462C16.3604 1.63956 16.4244 1.71765 16.4623 1.80901C16.5001 1.90038 16.51 2.00091 16.4907 2.0979C16.4715 2.19489 16.4238 2.28398 16.3539 2.35391C16.284 2.42383 16.1949 2.47145 16.0979 2.49075C16.0009 2.51004 15.9004 2.50014 15.809 2.46229C15.7176 2.42445 15.6396 2.36036 15.5846 2.27814C15.5297 2.19591 15.5004 2.09924 15.5004 2.00035C15.5004 1.86775 15.553 1.74057 15.6468 1.6468C15.7406 1.55303 15.8677 1.50035 16.0004 1.50035ZM8.50035 7.00035C8.59924 7.00035 8.69591 7.02968 8.77814 7.08462C8.86036 7.13956 8.92445 7.21765 8.96229 7.30901C9.00014 7.40038 9.01004 7.50091 8.99075 7.5979C8.97145 7.69489 8.92383 7.78398 8.85391 7.85391C8.78398 7.92383 8.69489 7.97145 8.5979 7.99075C8.50091 8.01004 8.40038 8.00014 8.30901 7.96229C8.21765 7.92445 8.13956 7.86036 8.08462 7.77814C8.02968 7.69592 8.00035 7.59925 8.00035 7.50035C8.00035 7.36775 8.05303 7.24057 8.1468 7.1468C8.24057 7.05303 8.36775 7.00035 8.50035 7.00035ZM7.00035 8.50035C7.09925 8.50035 7.19592 8.52968 7.27814 8.58462C7.36036 8.63956 7.42445 8.71765 7.46229 8.80901C7.50014 8.90038 7.51004 9.00091 7.49075 9.0979C7.47145 9.19489 7.42383 9.28398 7.35391 9.35391C7.28398 9.42383 7.19489 9.47145 7.0979 9.49075C7.00091 9.51004 6.90038 9.50014 6.80901 9.46229C6.71765 9.42445 6.63956 9.36036 6.58462 9.27814C6.52968 9.19591 6.50035 9.09924 6.50035 9.00035C6.50035 8.86775 6.55303 8.74057 6.6468 8.6468C6.74057 8.55303 6.86775 8.50035 7.00035 8.50035ZM7.50035 12.0004V10.4084C7.79181 10.3053 8.04431 10.1147 8.22331 9.8627C8.40231 9.61067 8.49907 9.30948 8.50035 9.00035C8.80948 8.99907 9.11067 8.90231 9.3627 8.72331C9.61474 8.54431 9.80531 8.29181 9.90835 8.00035H11.5004V10.5179C10.9384 10.9413 10.4376 11.4401 10.0119 12.0004H7.50035ZM2.00035 17.0004C1.90146 17.0004 1.80479 16.971 1.72257 16.9161C1.64034 16.8611 1.57626 16.7831 1.53841 16.6917C1.50057 16.6003 1.49067 16.4998 1.50996 16.4028C1.52925 16.3058 1.57687 16.2167 1.6468 16.1468C1.71673 16.0769 1.80582 16.0293 1.90281 16.01C1.9998 15.9907 2.10033 16.0006 2.1917 16.0384C2.28306 16.0763 2.36115 16.1403 2.41609 16.2226C2.47103 16.3048 2.50035 16.4015 2.50035 16.5004C2.50035 16.633 2.44768 16.7601 2.35391 16.8539C2.26014 16.9477 2.13296 17.0004 2.00035 17.0004ZM16.0004 30.5004C15.6912 30.4991 15.39 30.4023 15.138 30.2233C14.886 30.0443 14.6954 29.7918 14.5924 29.5004H17.4084C17.3053 29.7918 17.1147 30.0443 16.8627 30.2233C16.6107 30.4023 16.3095 30.4991 16.0004 30.5004ZM18.0004 28.5004H14.0004C13.8677 28.5004 13.7406 28.4477 13.6468 28.3539C13.553 28.2601 13.5004 28.133 13.5004 28.0004C13.5004 27.8677 13.553 27.7406 13.6468 27.6468C13.7406 27.553 13.8677 27.5004 14.0004 27.5004H18.0004C18.133 27.5004 18.2601 27.553 18.3539 27.6468C18.4477 27.7406 18.5004 27.8677 18.5004 28.0004C18.5004 28.133 18.4477 28.2601 18.3539 28.3539C18.2601 28.4477 18.133 28.5004 18.0004 28.5004ZM18.0004 26.5004H14.0004C13.8677 26.5004 13.7406 26.4477 13.6468 26.3539C13.553 26.2601 13.5004 26.133 13.5004 26.0004C13.5004 25.8677 13.553 25.7406 13.6468 25.6468C13.7406 25.553 13.8677 25.5004 14.0004 25.5004H18.0004C18.133 25.5004 18.2601 25.553 18.3539 25.6468C18.4477 25.7406 18.5004 25.8677 18.5004 26.0004C18.5004 26.133 18.4477 26.2601 18.3539 26.3539C18.2601 26.4477 18.133 26.5004 18.0004 26.5004ZM19.8439 21.7349C18.9393 22.412 18.319 23.4016 18.1039 24.5109C18.0694 24.5084 18.0359 24.5004 18.0004 24.5004H14.0004C13.9649 24.5004 13.9314 24.5084 13.8964 24.5109C13.6789 23.4 13.0567 22.4095 12.1504 21.7314C11.0976 20.9591 10.302 19.8875 9.86745 18.6563C9.43286 17.4251 9.37942 16.0915 9.7141 14.8295C10.0488 13.5675 10.756 12.4356 11.7436 11.5816C12.7312 10.7275 13.9533 10.191 15.2504 10.0419C16.1613 9.93604 17.0843 10.0242 17.9587 10.3005C18.8331 10.5768 19.6392 11.035 20.324 11.645C21.0087 12.2549 21.5567 13.0029 21.9317 13.8398C22.3068 14.6766 22.5006 15.5833 22.5004 16.5004C22.4977 17.5198 22.256 18.5245 21.7947 19.4336C21.3333 20.3426 20.6651 21.1309 19.8439 21.7349ZM30.0004 17.0004C29.9015 17.0004 29.8048 16.971 29.7226 16.9161C29.6403 16.8611 29.5763 16.7831 29.5384 16.6917C29.5006 16.6003 29.4907 16.4998 29.51 16.4028C29.5293 16.3058 29.5769 16.2167 29.6468 16.1468C29.7167 16.0769 29.8058 16.0293 29.9028 16.01C29.9998 15.9907 30.1003 16.0006 30.1917 16.0384C30.2831 16.0763 30.3611 16.1403 30.4161 16.2226C30.471 16.3048 30.5004 16.4015 30.5004 16.5004C30.5004 16.633 30.4477 16.7601 30.3539 16.8539C30.2601 16.9477 30.133 17.0004 30.0004 17.0004Z" fill="white"/>
</g>
<defs>
<clipPath id="clip0_577_1824">
<rect width="32" height="32" fill="white"/>
</clipPath>
</defs>
</svg>
