<svg width="133" height="209" viewBox="0 0 133 209" fill="none" xmlns="http://www.w3.org/2000/svg">
<g id="link-03" opacity="0.15">
<path id="Vector" d="M83.1016 125.888L125.886 83.1036" stroke="#4B7810" stroke-width="1.5" stroke-linecap="round"/>
<path id="Vector_2" d="M73.6123 105.184C76.5605 107.263 80.6353 106.557 82.7134 103.609C84.7916 100.66 84.0862 96.5854 81.1378 94.5076L73.6123 105.184ZM114.493 127.863C112.415 124.915 108.341 124.209 105.392 126.288C102.444 128.366 101.738 132.44 103.817 135.389L114.493 127.863ZM41.3301 167.671C35.2689 161.61 31.1003 157.428 28.2517 153.887C25.4802 150.442 24.4655 148.201 24.1455 146.181L11.2438 148.224C12.0661 153.416 14.6016 157.759 18.074 162.076C21.4692 166.296 26.2381 171.052 32.0935 176.908L41.3301 167.671ZM32.0935 110.467C26.2381 116.322 21.4692 121.078 18.074 125.299C14.6016 129.615 12.0661 133.958 11.2438 139.15L24.1455 141.193C24.4655 139.174 25.4802 136.932 28.2517 133.487C31.1003 129.946 35.2689 125.764 41.3301 119.703L32.0935 110.467ZM24.1455 146.181C23.8838 144.528 23.8838 142.846 24.1455 141.193L11.2438 139.15C10.7677 142.156 10.7677 145.218 11.2438 148.224L24.1455 146.181ZM89.2974 167.671C83.2364 173.732 79.0551 177.9 75.5142 180.749C72.0691 183.521 69.8275 184.535 67.8074 184.856L69.8509 197.757C75.0424 196.935 79.386 194.399 83.7021 190.927C87.9224 187.532 92.6789 182.763 98.5344 176.908L89.2974 167.671ZM32.0935 176.908C37.949 182.763 42.7052 187.532 46.9256 190.927C51.2417 194.399 55.5851 196.935 60.7768 197.757L62.8202 184.856C60.8001 184.535 58.5586 183.521 55.1135 180.749C51.5726 177.9 47.3913 173.732 41.3301 167.671L32.0935 176.908ZM67.8074 184.856C66.1554 185.117 64.4723 185.117 62.8202 184.856L60.7768 197.757C63.7828 198.233 66.8449 198.233 69.8509 197.757L67.8074 184.856ZM98.5344 176.908C104.39 171.052 109.159 166.296 112.554 162.076C116.026 157.759 118.562 153.416 119.384 148.224L106.482 146.181C106.162 148.201 105.147 150.442 102.376 153.887C99.5271 157.428 95.3584 161.61 89.2974 167.671L98.5344 176.908ZM106.482 141.193C106.744 142.846 106.744 144.528 106.482 146.181L119.384 148.224C119.86 145.218 119.86 142.156 119.384 139.15L106.482 141.193ZM41.3301 119.703C47.3913 113.642 51.5726 109.474 55.1135 106.625C58.5586 103.853 60.8001 102.839 62.8202 102.518L60.7768 89.617C55.5851 90.4391 51.2417 92.975 46.9256 96.447C42.7052 99.8423 37.949 104.611 32.0935 110.467L41.3301 119.703ZM69.851 89.617C66.845 89.1407 63.7828 89.1407 60.7768 89.617L62.8202 102.518C64.4723 102.257 66.1553 102.257 67.8075 102.518L69.851 89.617ZM81.1378 94.5076C77.6302 92.0353 74.011 90.2762 69.851 89.617L67.8075 102.518C69.4376 102.777 71.2046 103.487 73.6123 105.184L81.1378 94.5076ZM103.817 135.389C105.514 137.797 106.224 139.564 106.482 141.193L119.384 139.15C118.725 134.99 116.966 131.371 114.493 127.863L103.817 135.389Z" fill="#4B7810"/>
<path id="Vector_3" d="M94.5096 81.1359C96.5874 84.0843 100.662 84.7896 103.611 82.7115C106.559 80.6333 107.265 76.5586 105.186 73.6103L94.5096 81.1359ZM135.391 103.815C132.442 101.736 128.368 102.442 126.29 105.39C124.211 108.339 124.916 112.414 127.865 114.491L135.391 103.815ZM110.468 32.0916C104.613 37.9471 99.8443 42.7033 96.4489 46.9236C92.9769 51.2397 90.441 55.5832 89.619 60.7748L102.52 62.8182C102.841 60.7982 103.855 58.5566 106.627 55.1115C109.476 51.5706 113.644 47.3893 119.705 41.3282L110.468 32.0916ZM102.52 67.8055C102.259 66.1534 102.259 64.4704 102.52 62.8182L89.619 60.7748C89.1426 63.7808 89.1426 66.843 89.619 69.8489L102.52 67.8055ZM167.673 89.2955C161.612 95.3565 157.43 99.5252 153.889 102.374C150.444 105.146 148.203 106.16 146.183 106.481L148.226 119.382C153.418 118.56 157.761 116.024 162.078 112.552C166.298 109.157 171.054 104.388 176.91 98.5324L167.673 89.2955ZM146.183 106.481C144.53 106.742 142.848 106.742 141.195 106.481L139.152 119.382C142.158 119.858 145.22 119.858 148.226 119.382L146.183 106.481ZM167.673 41.3282C173.734 47.3893 177.902 51.5706 180.751 55.1115C183.523 58.5566 184.537 60.7982 184.858 62.8182L197.759 60.7748C196.937 55.5833 194.401 51.2397 190.929 46.9236C187.534 42.7033 182.765 37.9471 176.91 32.0916L167.673 41.3282ZM176.91 98.5324C182.765 92.6769 187.534 87.9204 190.929 83.7001C194.401 79.384 196.937 75.0406 197.759 69.849L184.858 67.8055C184.537 69.8256 183.523 72.0671 180.751 75.5122C177.902 79.0531 173.734 83.2344 167.673 89.2955L176.91 98.5324ZM184.858 62.8182C185.119 64.4705 185.119 66.1534 184.858 67.8055L197.759 69.849C198.235 66.8431 198.235 63.7808 197.759 60.7748L184.858 62.8182ZM176.91 32.0916C171.054 26.2362 166.298 21.4672 162.078 18.072C157.761 14.5997 153.418 12.0642 148.226 11.2418L146.183 24.1436C148.203 24.4635 150.444 25.4782 153.889 28.2497C157.43 31.0984 161.612 35.267 167.673 41.3282L176.91 32.0916ZM119.705 41.3282C125.766 35.267 129.948 31.0984 133.489 28.2497C136.934 25.4782 139.175 24.4635 141.195 24.1436L139.152 11.2418C133.96 12.0642 129.617 14.5997 125.3 18.072C121.08 21.4672 116.324 26.2361 110.468 32.0916L119.705 41.3282ZM148.226 11.2418C145.22 10.7657 142.158 10.7657 139.152 11.2418L141.195 24.1436C142.848 23.8819 144.53 23.8819 146.183 24.1436L148.226 11.2418ZM105.186 73.6103C103.489 71.2026 102.779 69.4356 102.52 67.8055L89.619 69.8489C90.2782 74.009 92.0373 77.6282 94.5096 81.1359L105.186 73.6103ZM127.865 114.491C131.373 116.964 134.992 118.723 139.152 119.382L141.195 106.481C139.566 106.222 137.799 105.512 135.391 103.815L127.865 114.491Z" fill="#4B7810"/>
</g>
</svg>
