<svg width="60" height="60" viewBox="0 0 60 60" fill="none" xmlns="http://www.w3.org/2000/svg">
<g id="recycle">
<g clip-path="url(#clip0_573_807)">
<g id="Layer 2">
<path id="Vector" d="M49.3597 30.0161L42.3099 24.2409C42.0232 24.0062 41.655 23.8949 41.2863 23.9316C40.9175 23.9683 40.5785 24.15 40.3437 24.4367C40.1089 24.7233 39.9976 25.0915 40.0343 25.4603C40.0711 25.829 40.2527 26.1681 40.5394 26.4028L47.5892 32.178C47.8261 32.372 48.0094 32.6233 48.1218 32.908C48.2341 33.1928 48.2718 33.5015 48.2312 33.8049C48.1906 34.1083 48.0731 34.3963 47.8898 34.6415C47.7066 34.8867 47.4636 35.081 47.1841 35.2058L41.8645 37.5861L42.2717 36.5194C42.4036 36.1728 42.3924 35.788 42.2406 35.4497C42.0888 35.1114 41.8088 34.8472 41.4622 34.7154C41.1156 34.5835 40.7309 34.5947 40.3925 34.7465C40.0542 34.8983 39.7901 35.1783 39.6582 35.5249L38.0471 39.7427C37.915 40.0888 37.9259 40.4731 38.0771 40.8112C38.2284 41.1493 38.5078 41.4135 38.8538 41.5457L43.0729 43.1562C43.4174 43.2809 43.7969 43.2653 44.13 43.1128C44.463 42.9603 44.7228 42.6831 44.8534 42.3409C44.984 41.9987 44.975 41.6189 44.8283 41.2832C44.6817 40.9476 44.409 40.683 44.0691 40.5465L43.0005 40.1386L48.3214 37.7577C49.0358 37.4384 49.6566 36.9417 50.1249 36.3148C50.5932 35.688 50.8935 34.9518 50.9971 34.1762C51.1008 33.4007 51.0044 32.6115 50.7172 31.8837C50.4299 31.1558 49.9613 30.5135 49.3559 30.0178L49.3597 30.0161ZM31.4977 42.2203L23.1779 45.9432C22.8977 46.0681 22.5903 46.1194 22.2848 46.092C21.9793 46.0646 21.6859 45.9595 21.4324 45.7866C21.179 45.6138 20.974 45.379 20.837 45.1046C20.6999 44.8302 20.6354 44.5253 20.6494 44.2189L20.8548 38.3575L21.6696 39.2447C21.7937 39.3801 21.9432 39.4897 22.1097 39.5673C22.2762 39.6449 22.4563 39.689 22.6398 39.697C22.8232 39.705 23.0065 39.6768 23.1791 39.6139C23.3517 39.5511 23.5102 39.4549 23.6456 39.3308C23.781 39.2067 23.8906 39.0571 23.9682 38.8907C24.0458 38.7242 24.0899 38.5441 24.0979 38.3606C24.1058 38.1771 24.0776 37.9939 24.0148 37.8213C23.952 37.6487 23.8558 37.4902 23.7317 37.3548L20.6744 34.0383C20.4239 33.7655 20.0752 33.6034 19.7051 33.5876C19.335 33.5718 18.9737 33.7037 18.7009 33.9542L15.3759 37.0061C15.1027 37.2572 14.9404 37.6066 14.9248 37.9774C14.9091 38.3481 15.0414 38.7099 15.2926 38.9831C15.5437 39.2563 15.8931 39.4186 16.2638 39.4342C16.6346 39.4499 16.9964 39.3176 17.2696 39.0664L18.067 38.3347L17.8637 44.1187C17.8304 44.9 17.9974 45.6769 18.3489 46.3756C18.7003 47.0743 19.2244 47.6716 19.8715 48.1108C20.5187 48.5499 21.2673 48.8164 22.0464 48.885C22.8255 48.9535 23.6091 48.8217 24.323 48.5022L32.6415 44.78C32.9797 44.6286 33.2439 44.3492 33.3761 44.0031C33.5082 43.6569 33.4974 43.2725 33.3461 42.9343C33.1948 42.5962 32.9153 42.332 32.5692 42.1998C32.2231 42.0677 31.8386 42.0785 31.5004 42.2298L31.4977 42.2203ZM34.3711 21.2876C34.498 21.2683 34.6217 21.232 34.739 21.1796C35.0167 21.0552 35.2462 20.8434 35.3925 20.5765C35.5389 20.3097 35.594 20.0023 35.5497 19.7012L34.888 15.2333C34.8337 14.8667 34.6361 14.5367 34.3385 14.3158C34.0409 14.0949 33.6678 14.0013 33.3012 14.0556C32.9346 14.1098 32.6046 14.3075 32.3837 14.605C32.1629 14.9026 32.0693 15.2757 32.1235 15.6423L32.3248 16.9985L27.61 13.3019C26.9837 12.8319 26.2469 12.5311 25.4706 12.4287C24.6943 12.3263 23.9047 12.4256 23.178 12.7171C22.4461 12.9991 21.8006 13.4674 21.3053 14.0755C20.8101 14.6837 20.4822 15.4106 20.3542 16.1844L18.7696 25.1575C18.7057 25.5222 18.7892 25.8974 19.0018 26.2006C19.2143 26.5038 19.5386 26.7101 19.9033 26.7744C20.2679 26.8385 20.6431 26.7552 20.9463 26.5429C21.2496 26.3306 21.4562 26.0066 21.5207 25.642L23.1053 16.669C23.1581 16.3707 23.2856 16.0906 23.4757 15.8548C23.6658 15.619 23.9125 15.4351 24.1928 15.3203C24.4731 15.2054 24.7779 15.1632 25.0788 15.1978C25.3798 15.2323 25.6671 15.3423 25.9141 15.5177L30.4123 19.0449L29.4949 19.1799C29.1278 19.235 28.7977 19.4336 28.5771 19.7321C28.3565 20.0305 28.2635 20.4044 28.3185 20.7714C28.3736 21.1385 28.5722 21.4686 28.8706 21.6892C29.1691 21.9098 29.543 22.0028 29.91 21.9478L34.3711 21.2876Z" fill="white"/>
</g>
</g>
</g>
<defs>
<clipPath id="clip0_573_807">
<rect x="0.299805" y="18.364" width="44.701" height="44.701" rx="13.3374" transform="rotate(-24.1068 0.299805 18.364)" fill="white"/>
</clipPath>
</defs>
</svg>
