<svg width="157" height="205" viewBox="0 0 157 205" fill="none" xmlns="http://www.w3.org/2000/svg">
<g id="Save Environment" opacity="0.15">
<path id="Vector" d="M120.062 117.732V68.2944H136.518C150.879 68.2757 164.646 62.5626 174.801 52.4079C184.956 42.2532 190.669 28.4859 190.688 14.125C190.688 12.2519 189.943 10.4555 188.619 9.13106C187.294 7.80658 185.498 7.0625 183.625 7.0625H160.107C150.518 7.06711 141.104 9.62003 132.826 14.4598C124.549 19.2997 117.707 26.2525 113 34.6063C108.293 26.2525 101.451 19.2997 93.1738 14.4598C84.8965 9.62003 75.4815 7.06711 65.8931 7.0625H42.375C40.5019 7.0625 38.7055 7.80658 37.3811 9.13106C36.0566 10.4555 35.3125 12.2519 35.3125 14.125C35.3312 28.4859 41.0443 42.2532 51.199 52.4079C61.3537 62.5626 75.121 68.2757 89.4819 68.2944H105.938V117.732C105.938 119.605 106.682 121.401 108.006 122.726C109.331 124.05 111.127 124.794 113 124.794C114.873 124.794 116.669 124.05 117.994 122.726C119.318 121.401 120.062 119.605 120.062 117.732ZM160.107 21.1875H175.927C174.27 30.4344 169.415 38.8045 162.211 44.8337C155.007 50.863 145.912 54.1675 136.518 54.1694H120.698C122.355 44.9225 127.21 36.5524 134.414 30.5231C141.618 24.4939 150.713 21.1894 160.107 21.1875ZM89.4819 54.1694C80.0877 54.1675 70.9932 50.863 63.7891 44.8337C56.585 38.8045 51.7299 30.4344 50.0731 21.1875H65.8931C75.2873 21.1894 84.3818 24.4939 91.5859 30.5231C98.79 36.5524 103.645 44.9225 105.302 54.1694H89.4819ZM84.75 134.188C80.2288 129.798 74.4105 126.986 68.1618 126.172C61.9131 125.357 55.5685 126.584 50.0731 129.668V99.5106C50.0545 89.9823 46.2611 80.8496 39.5235 74.1121C32.786 67.3745 23.6533 63.5812 14.125 63.5625C12.2519 63.5625 10.4555 64.3066 9.13106 65.6311C7.80658 66.9555 7.0625 68.7519 7.0625 70.625V153.609C7.0672 156.893 7.82015 160.133 9.26417 163.082C10.7082 166.031 12.8053 168.613 15.3963 170.63L27.4731 179.952C30.1054 181.985 32.2332 184.597 33.6909 187.586C35.1486 190.575 35.8969 193.86 35.8775 197.185V211.875C35.8775 213.748 36.6216 215.544 37.9461 216.869C39.2705 218.193 41.0669 218.938 42.94 218.938H101.559C103.432 218.938 105.228 218.193 106.553 216.869C107.877 215.544 108.621 213.748 108.621 211.875V166.887C108.615 161.194 106.355 155.734 102.336 151.702L84.75 134.188ZM94.4963 204.812H50.0025V197.185C49.9542 191.712 48.6566 186.321 46.2088 181.426C43.7609 176.53 40.2273 172.258 35.8775 168.935L24.0125 159.471C23.1347 158.766 22.4255 157.874 21.9367 156.86C21.448 155.846 21.192 154.735 21.1875 153.609V78.8881C25.4953 80.3504 29.2363 83.1264 31.8841 86.8257C34.5319 90.525 35.9532 94.9614 35.9481 99.5106V145.346C35.9094 145.746 35.9094 146.148 35.9481 146.547C35.7798 147.627 35.8644 148.731 36.1953 149.773C36.5262 150.814 37.0943 151.765 37.855 152.55L59.4663 174.161C60.1262 174.816 60.9088 175.334 61.7693 175.685C62.6298 176.037 63.5512 176.215 64.4806 176.209C65.8689 176.204 67.2248 175.789 68.3787 175.017C69.5326 174.245 70.4333 173.15 70.9684 171.869C71.5034 170.588 71.649 169.177 71.387 167.814C71.1249 166.45 70.4669 165.195 69.495 164.203L51.9094 146.476L54.1694 144.146C56.9179 141.437 60.6218 139.919 64.4806 139.919C68.3395 139.919 72.0434 141.437 74.7919 144.146L92.3775 161.731C93.062 162.402 93.6028 163.205 93.967 164.091C94.3313 164.978 94.5113 165.929 94.4963 166.887V204.812ZM211.875 63.5625C202.347 63.5812 193.214 67.3745 186.476 74.1121C179.739 80.8496 175.946 89.9823 175.927 99.5106V129.668C170.461 126.479 164.092 125.193 157.817 126.011C151.542 126.829 145.716 129.704 141.25 134.188L123.664 151.702C119.645 155.734 117.385 161.194 117.379 166.887V211.875C117.379 213.748 118.123 215.544 119.447 216.869C120.772 218.193 122.568 218.938 124.441 218.938H183.06C184.933 218.938 186.729 218.193 188.054 216.869C189.378 215.544 190.122 213.748 190.122 211.875V197.185C190.103 193.86 190.851 190.575 192.309 187.586C193.767 184.597 195.895 181.985 198.527 179.952L210.604 170.63C213.195 168.613 215.292 166.031 216.736 163.082C218.18 160.133 218.933 156.893 218.938 153.609V70.625C218.938 68.7519 218.193 66.9555 216.869 65.6311C215.544 64.3066 213.748 63.5625 211.875 63.5625ZM204.812 153.609C204.81 154.743 204.548 155.86 204.046 156.877C203.544 157.893 202.815 158.78 201.917 159.471L189.911 168.794C185.561 172.116 182.027 176.389 179.579 181.284C177.131 186.18 175.834 191.57 175.786 197.044V204.812H131.292V166.887C131.277 165.929 131.457 164.978 131.821 164.091C132.185 163.205 132.726 162.402 133.411 161.731L150.996 144.146C153.745 141.437 157.449 139.919 161.307 139.919C165.166 139.919 168.87 141.437 171.619 144.146L173.879 146.476L156.152 164.203C155.18 165.195 154.522 166.45 154.26 167.814C153.998 169.177 154.143 170.588 154.678 171.869C155.214 173.15 156.114 174.245 157.268 175.017C158.422 175.789 159.778 176.204 161.166 176.209C162.096 176.215 163.017 176.037 163.878 175.685C164.738 175.334 165.521 174.816 166.181 174.161L187.792 152.55C188.553 151.765 189.121 150.814 189.452 149.773C189.783 148.731 189.867 147.627 189.699 146.547C189.738 146.148 189.738 145.746 189.699 145.346V99.5106C189.718 94.9178 191.191 90.449 193.906 86.7444C196.621 83.0399 200.439 80.2898 204.812 78.8881V153.609Z" fill="#4B7810"/>
</g>
</svg>
