<svg width="86" height="86" viewBox="0 0 86 86" fill="none" xmlns="http://www.w3.org/2000/svg">
<g id="Tick Circle" filter="url(#filter0_d_573_1554)">
<circle id="Ellipse 13" cx="43.5" cy="34.1885" r="23.5" fill="#699431"/>
<path id="Vector" d="M42.9987 61.3558C48.2729 61.3558 53.4286 59.7918 57.8139 56.8617C62.1992 53.9315 65.6171 49.7667 67.6355 44.894C69.6538 40.0213 70.1819 34.6596 69.153 29.4867C68.124 24.3139 65.5843 19.5624 61.8549 15.833C58.1255 12.1036 53.3739 9.5638 48.2011 8.53487C43.0283 7.50593 37.6665 8.03402 32.7938 10.0524C27.9211 12.0707 23.7563 15.4886 20.8262 19.8739C17.896 24.2592 16.332 29.415 16.332 34.6891C16.332 41.7616 19.1415 48.5443 24.1425 53.5453C26.6187 56.0215 29.5585 57.9858 32.7938 59.3259C36.0292 60.666 39.4968 61.3558 42.9987 61.3558ZM33.1134 32.8038C33.3609 32.5561 33.6548 32.3596 33.9783 32.2255C34.3018 32.0914 34.6485 32.0224 34.9987 32.0224C35.3489 32.0224 35.6956 32.0914 36.0191 32.2255C36.3426 32.3596 36.6365 32.5561 36.884 32.8038L40.332 36.2515L49.1134 27.4705C49.6163 26.9847 50.2899 26.7159 50.9891 26.722C51.6883 26.7281 52.3571 27.0085 52.8515 27.503C53.346 27.9974 53.6264 28.6662 53.6325 29.3654C53.6386 30.0646 53.3698 30.7382 52.884 31.2411L42.2174 41.9078C41.9698 42.1555 41.6759 42.352 41.3524 42.4861C41.0289 42.6201 40.6822 42.6891 40.332 42.6891C39.9819 42.6891 39.6351 42.6201 39.3116 42.4861C38.9881 42.352 38.6942 42.1555 38.4467 41.9078L33.1134 36.5745C32.8656 36.327 32.6691 36.0331 32.535 35.7096C32.401 35.3861 32.3319 35.0393 32.3319 34.6891C32.3319 34.339 32.401 33.9922 32.535 33.6687C32.6691 33.3452 32.8656 33.0513 33.1134 32.8038Z" fill="white"/>
</g>
<defs>
<filter id="filter0_d_573_1554" x="-5" y="-5.31152" width="96" height="96" filterUnits="userSpaceOnUse" color-interpolation-filters="sRGB">
<feFlood flood-opacity="0" result="BackgroundImageFix"/>
<feColorMatrix in="SourceAlpha" type="matrix" values="0 0 0 0 0 0 0 0 0 0 0 0 0 0 0 0 0 0 127 0" result="hardAlpha"/>
<feOffset dy="8"/>
<feGaussianBlur stdDeviation="8"/>
<feComposite in2="hardAlpha" operator="out"/>
<feColorMatrix type="matrix" values="0 0 0 0 0.294422 0 0 0 0 0.468889 0 0 0 0 0.0644444 0 0 0 0.25 0"/>
<feBlend mode="normal" in2="BackgroundImageFix" result="effect1_dropShadow_573_1554"/>
<feBlend mode="normal" in="SourceGraphic" in2="effect1_dropShadow_573_1554" result="shape"/>
</filter>
</defs>
</svg>
