<svg width="175" height="185" viewBox="0 0 175 185" fill="none" xmlns="http://www.w3.org/2000/svg">
<g id="Value Chain" opacity="0.15">
<path id="Vector" fill-rule="evenodd" clip-rule="evenodd" d="M119 64.4583C112.684 64.4583 106.63 65.5297 101.001 67.4967C98.4157 68.4 95.5877 67.0367 94.6843 64.4516C93.781 61.8665 95.1444 59.0385 97.7294 58.1352C104.396 55.8057 111.556 54.5417 119 54.5417C154.6 54.5417 183.458 83.4007 183.458 119C183.458 132.216 179.476 144.516 172.645 154.748C171.124 157.025 168.046 157.639 165.768 156.119C163.49 154.598 162.876 151.52 164.398 149.242C170.174 140.59 173.542 130.195 173.542 119C173.542 88.8774 149.123 64.4583 119 64.4583ZM75.7471 77.843C77.8797 79.5607 78.2161 82.6821 76.4984 84.8148C76.132 85.2695 75.7729 85.7304 75.4211 86.197C68.5375 95.326 64.4583 106.68 64.4583 119C64.4583 149.123 88.8774 173.542 119 173.542C127.987 173.542 136.453 171.372 143.917 167.531C146.352 166.279 149.341 167.237 150.594 169.672C151.847 172.107 150.889 175.097 148.454 176.349C139.62 180.895 129.602 183.458 119 183.458C83.4007 183.458 54.5417 154.6 54.5417 119C54.5417 104.452 59.3673 91.0164 67.5031 80.2265C67.9186 79.6755 68.3427 79.1313 68.7753 78.5942C70.493 76.4616 73.6144 76.1253 75.7471 77.843ZM223.125 39.6667C223.125 25.9746 212.025 14.875 198.333 14.875C184.641 14.875 173.542 25.9746 173.542 39.6667C173.542 53.3587 184.641 64.4583 198.333 64.4583C212.025 64.4583 223.125 53.3587 223.125 39.6667ZM198.333 24.7917C206.548 24.7917 213.208 31.4514 213.208 39.6667C213.208 47.8819 206.548 54.5417 198.333 54.5417C190.118 54.5417 183.458 47.8819 183.458 39.6667C183.458 31.4514 190.118 24.7917 198.333 24.7917ZM223.125 198.333C223.125 184.641 212.025 173.542 198.333 173.542C184.641 173.542 173.542 184.641 173.542 198.333C173.542 212.025 184.641 223.125 198.333 223.125C212.025 223.125 223.125 212.025 223.125 198.333ZM198.333 183.458C206.548 183.458 213.208 190.118 213.208 198.333C213.208 206.548 206.548 213.208 198.333 213.208C190.118 213.208 183.458 206.548 183.458 198.333C183.458 190.118 190.118 183.458 198.333 183.458ZM64.4583 198.333C64.4583 184.641 53.3587 173.542 39.6667 173.542C25.9746 173.542 14.875 184.641 14.875 198.333C14.875 212.025 25.9746 223.125 39.6667 223.125C53.3587 223.125 64.4583 212.025 64.4583 198.333ZM39.6667 183.458C47.8819 183.458 54.5417 190.118 54.5417 198.333C54.5417 206.548 47.8819 213.208 39.6667 213.208C31.4514 213.208 24.7917 206.548 24.7917 198.333C24.7917 190.118 31.4514 183.458 39.6667 183.458ZM64.4583 39.6667C64.4583 25.9746 53.3587 14.875 39.6667 14.875C25.9746 14.875 14.875 25.9746 14.875 39.6667C14.875 53.3587 25.9746 64.4583 39.6667 64.4583C53.3587 64.4583 64.4583 53.3587 64.4583 39.6667ZM39.6667 24.7917C47.8819 24.7917 54.5417 31.4514 54.5417 39.6667C54.5417 47.8819 47.8819 54.5417 39.6667 54.5417C31.4514 54.5417 24.7917 47.8819 24.7917 39.6667C24.7917 31.4514 31.4514 24.7917 39.6667 24.7917Z" fill="#4B7810"/>
<path id="Vector_2" fill-rule="evenodd" clip-rule="evenodd" d="M119 153.708C116.262 153.708 114.042 151.488 114.042 148.75V143.792H109.083C106.345 143.792 104.125 141.571 104.125 138.833C104.125 136.095 106.345 133.875 109.083 133.875H119C121.738 133.875 123.958 131.655 123.958 128.917V123.958H109.083C106.345 123.958 104.125 121.738 104.125 119V109.083C104.125 102.607 108.264 97.0967 114.042 95.0547V89.25C114.042 86.5116 116.262 84.2916 119 84.2916C121.738 84.2916 123.958 86.5116 123.958 89.25V94.2083H128.917C131.655 94.2083 133.875 96.4283 133.875 99.1666C133.875 101.905 131.655 104.125 128.917 104.125H119C116.262 104.125 114.042 106.345 114.042 109.083V114.042H128.917C131.655 114.042 133.875 116.262 133.875 119V128.917C133.875 135.393 129.736 140.903 123.958 142.945V148.75C123.958 151.488 121.738 153.708 119 153.708ZM152.349 38.2948C130.591 32.0914 107.396 32.0682 85.6566 38.2932C83.024 39.047 80.2787 37.524 79.5249 34.8913C78.7711 32.2587 80.2942 29.5135 82.9268 28.7596C106.458 22.0217 131.54 22.0502 155.068 28.7581C157.702 29.5089 159.228 32.2524 158.476 34.8858C157.726 37.5193 154.983 39.0456 152.349 38.2948ZM197.647 152.349C203.85 130.591 203.873 107.396 197.648 85.6566C196.894 83.024 198.418 80.2788 201.05 79.5249C203.682 78.7711 206.428 80.2942 207.182 82.9268C213.919 106.458 213.892 131.54 207.183 155.068C206.432 157.702 203.689 159.228 201.055 158.476C198.423 157.726 196.896 154.983 197.647 152.349ZM40.3493 152.349C34.146 130.591 34.1228 107.396 40.3477 85.6566C41.1016 83.024 39.5785 80.2788 36.9459 79.5249C34.3132 78.7711 31.568 80.2942 30.8142 82.9268C24.0762 106.458 24.1048 131.54 30.8126 155.068C31.5634 157.702 34.307 159.228 36.9404 158.476C39.5739 157.726 41.1001 154.983 40.3493 152.349ZM152.349 199.703C130.591 205.906 107.396 205.929 85.6566 199.705C83.024 198.95 80.2787 200.473 79.5249 203.106C78.7711 205.739 80.2942 208.484 82.9268 209.238C106.458 215.976 131.54 215.947 155.068 209.24C157.702 208.489 159.228 205.745 158.476 203.112C157.726 200.478 154.983 198.952 152.349 199.703Z" fill="#4B7810"/>
</g>
</svg>
