<svg width="32" height="32" viewBox="0 0 32 32" fill="none" xmlns="http://www.w3.org/2000/svg">
<g id="Yoga">
<path id="Vector" d="M17.1927 23.4051C17.2133 23.5215 17.2104 23.6408 17.1841 23.756C17.1579 23.8712 17.1089 23.98 17.0401 24.076C16.9712 24.172 16.8838 24.2532 16.7831 24.315C16.6824 24.3767 16.5703 24.4177 16.4535 24.4355C15.3271 24.5763 14.4791 25.2195 13.5735 25.8051C13.0258 26.1675 12.4061 26.4069 11.757 26.5068C11.1079 26.6068 10.4449 26.565 9.81354 26.3843C7.80074 25.8627 7.04554 23.9523 8.23274 22.2435C8.63192 21.6696 9.1396 21.1793 9.72714 20.8003C10.7017 20.2303 11.7046 19.7102 12.7319 19.2419C13.0935 19.0627 13.4775 18.9219 13.9671 18.7363L13.4967 16.4675C12.1399 18.9699 11.8391 18.6275 10.0375 19.5843C9.52554 19.8563 8.99754 20.1027 8.47914 20.3619L8.32554 20.4451C7.57994 20.8003 6.98794 20.7075 6.70634 20.1955C6.42474 19.6835 6.65514 19.1011 7.38154 18.7203C8.22954 18.2787 9.08714 17.8403 9.97354 17.4851C10.3979 17.3284 10.7786 17.0723 11.0837 16.7383C11.3888 16.4042 11.6095 16.002 11.7271 15.5651C11.8967 15.0115 12.1079 14.4675 12.3255 13.9299C12.5847 13.2899 12.8791 13.0595 13.4071 13.1011C14.0055 13.1491 14.5911 13.2867 14.7639 13.9779C15.1639 15.5523 15.5607 17.1299 15.9063 18.7139C15.9768 19.0171 15.9416 19.3353 15.8066 19.6158C15.6716 19.8963 15.4449 20.1223 15.1639 20.2563C14.6839 20.5251 14.1623 20.7203 13.6695 20.9635C12.7863 21.3987 11.8999 21.8307 11.0359 22.3043C10.7121 22.5055 10.4199 22.7535 10.1687 23.0403C9.90954 23.3091 9.59914 23.6803 9.82954 24.0291C10.063 24.2739 10.3762 24.4271 10.7127 24.4611C11.0443 24.5172 11.3837 24.5052 11.7105 24.426C12.0372 24.3468 12.3445 24.202 12.6135 24.0003C13.0033 23.699 13.4152 23.4273 13.8455 23.1875C14.3951 22.9293 14.9644 22.7153 15.5479 22.5475C15.8054 22.493 16.0713 22.493 16.3287 22.5475C16.5482 22.5725 16.7528 22.6708 16.9096 22.8264C17.0663 22.982 17.1661 23.1859 17.1927 23.4051ZM24.8023 18.8067C24.4734 18.6219 24.1168 18.4912 23.7463 18.4195C22.2263 18.1827 21.2503 17.3091 20.6359 15.9363C20.3639 15.3283 20.0119 14.7587 19.6951 14.1731C19.5924 13.9644 19.4747 13.7634 19.3431 13.5715C19.2221 13.3709 19.0413 13.2134 18.826 13.1209C18.6107 13.0285 18.3719 13.0059 18.1431 13.0563C17.6247 13.1651 17.4679 13.5779 17.3975 14.0163C17.3271 14.4547 17.3111 14.9987 17.2471 15.4883C17.1031 16.6083 16.9431 17.7283 16.7895 18.8483C16.7245 19.223 16.7723 19.6085 16.9266 19.9561C17.081 20.3036 17.3351 20.5974 17.6567 20.8003C18.2058 21.1779 18.7752 21.5251 19.3623 21.8403C20.0503 22.2147 20.7671 22.5347 21.4647 22.8867C22.0471 23.1811 22.3447 23.6291 22.1655 24.4483C21.6951 24.5091 21.2439 24.5955 20.7895 24.6211C20.0375 24.6659 19.2791 24.6595 18.5271 24.7011C18.0471 24.7267 17.5991 24.8579 17.3943 25.3635C17.1511 25.9715 17.5831 26.6179 18.3767 26.6851C19.853 26.8303 21.3433 26.7221 22.7831 26.3651C23.1836 26.2804 23.5446 26.065 23.8093 25.7528C24.074 25.4406 24.2274 25.0493 24.2455 24.6403C24.4119 22.8035 23.7719 21.9043 22.5559 21.2163C22.1015 20.9571 21.6151 20.7619 21.1479 20.5283C20.5271 20.2083 19.9063 19.8883 19.2855 19.5875C19.0789 19.5132 18.9084 19.363 18.8085 19.1675C18.7087 18.9719 18.687 18.7457 18.7479 18.5347C18.8503 18.0643 18.9015 17.5747 18.9975 16.9667L19.8007 18.2403C20.2092 18.9187 20.8284 19.4447 21.5639 19.7379C22.4023 20.0579 23.2567 20.3459 24.1239 20.5987C24.3596 20.6856 24.6199 20.6765 24.8491 20.5737C25.0782 20.4708 25.2579 20.2822 25.3495 20.0483C25.4415 19.8111 25.4355 19.5471 25.3329 19.3143C25.2303 19.0815 25.0395 18.8989 24.8023 18.8067ZM12.7223 8.47393C12.7134 8.05232 12.7888 7.63317 12.9443 7.24116C13.0998 6.84915 13.3321 6.49221 13.6276 6.19134C13.9231 5.89047 14.2758 5.65176 14.665 5.48926C15.0541 5.32676 15.4718 5.24376 15.8935 5.24513C16.8306 5.25693 17.7272 5.62923 18.397 6.28472C19.0668 6.94021 19.4583 7.82851 19.4903 8.76513C19.5091 9.18764 19.4403 9.60947 19.2882 10.0041C19.136 10.3987 18.9039 10.7576 18.6063 11.0581C18.3088 11.3587 17.9523 11.5944 17.5592 11.7505C17.1661 11.9066 16.745 11.9797 16.3223 11.9651C15.3844 11.9713 14.4816 11.6088 13.8083 10.9559C13.1349 10.3029 12.745 9.41161 12.7223 8.47393ZM14.7479 8.47393C14.7756 8.87915 14.9562 9.25869 15.2534 9.5356C15.5505 9.81252 15.9418 9.96607 16.3479 9.96513C16.4999 9.9635 16.65 9.93157 16.7894 9.87122C16.9289 9.81086 17.0549 9.72328 17.1601 9.61362C17.2653 9.50396 17.3476 9.37441 17.4021 9.23256C17.4566 9.09072 17.4822 8.93942 17.4775 8.78753C17.4466 8.38127 17.2619 8.0021 16.961 7.72738C16.6601 7.45266 16.2657 7.30307 15.8583 7.30913C15.7072 7.30567 15.557 7.33376 15.4173 7.39159C15.2776 7.44943 15.1514 7.53575 15.047 7.64504C14.9425 7.75434 14.8619 7.88422 14.8104 8.02638C14.759 8.16855 14.7377 8.31988 14.7479 8.47073V8.47393Z" fill="white"/>
</g>
</svg>
